<?xml version="1.0" encoding="UTF-8" standalone="no"?>
<!-- Created with Inkscape (http://www.inkscape.org/) -->

<svg
   width="84.02504mm"
   height="84.025017mm"
   viewBox="0 0 84.02504 84.025017"
   version="1.1"
   id="svg4741"
   sodipodi:docname="Baltimore_Light_RailLink_logo (1)_attempt1.svg"
   inkscape:version="1.4.2 (ebf0e940, 2025-05-08)"
   xmlns:inkscape="http://www.inkscape.org/namespaces/inkscape"
   xmlns:sodipodi="http://sodipodi.sourceforge.net/DTD/sodipodi-0.dtd"
   xmlns="http://www.w3.org/2000/svg"
   xmlns:svg="http://www.w3.org/2000/svg">
  <sodipodi:namedview
     id="namedview1"
     pagecolor="#ffffff"
     bordercolor="#000000"
     borderopacity="0.25"
     inkscape:showpageshadow="2"
     inkscape:pageopacity="0.0"
     inkscape:pagecheckerboard="0"
     inkscape:deskcolor="#d1d1d1"
     inkscape:document-units="mm"
     inkscape:zoom="1.8881423"
     inkscape:cx="140.87921"
     inkscape:cy="197.81348"
     inkscape:window-width="1728"
     inkscape:window-height="1080"
     inkscape:window-x="0"
     inkscape:window-y="37"
     inkscape:window-maximized="0"
     inkscape:current-layer="svg4741" />
  <defs
     id="defs4738" />
  <circle
     style="fill:#ffffff;fill-opacity:1;stroke:none;stroke-width:1.58668"
     id="path9"
     cx="42.052299"
     cy="41.984283"
     r="41.22401" />
  <g
     id="g1">
    <path
       d="m 83.962538,42.0125 v -0.6 l -0.025,-0.575 -0.025,-0.575 -0.025,-0.6 -0.025,-0.57499 -0.05,-0.57501 -0.05,-0.6 -0.075,-0.575 -0.05,-0.575 -0.075,-0.57499 -0.1,-0.57501 -0.1,-0.57499 -0.1,-0.57501 -0.1,-0.57499 -0.125,-0.57501 -0.125,-0.57499 -0.125,-0.57501 -0.15,-0.57499 -0.15,-0.55001 -0.15,-0.575 -0.15,-0.54999 -0.175,-0.55001 -0.19999,-0.575 -0.17501,-0.54999 -0.2,-0.55001 -0.2,-0.55 -0.2,-0.55 -0.225,-0.525 -0.225,-0.54999 -0.25,-0.525 -0.225,-0.55 -0.25,-0.525 -0.25,-0.525 -0.275,-0.525 -0.275,-0.50001 -0.275,-0.525 -0.275,-0.5 -0.3,-0.525 -0.3,-0.49999 -0.3,-0.50001 -0.325,-0.47499 -0.3,-0.5 -0.325,-0.475 -0.35,-0.5 -0.325,-0.475 -0.35,-0.47501 -0.35,-0.45 -0.375,-0.47499 -0.35,-0.45 -0.375,-0.45001 -0.375,-0.45 -0.4,-0.42499 -0.375,-0.45001 -0.4,-0.42499 -0.4,-0.425 -0.4,-0.425 -0.425,-0.40001 -0.425,-0.39999 -0.425,-0.40001 -0.425,-0.4 -0.45,-0.4 -0.425,-0.375 -0.45,-0.37499 -0.45,-0.375 -0.45,-0.37501 -0.475,-0.35 -0.475,-0.35 -0.475,-0.35 -0.475,-0.32499 -0.475,-0.325 -0.475,-0.32501 -0.5,-0.32499 -0.500001,-0.325 -0.499995,-0.3 -0.500003,-0.30001 -0.500002,-0.275 -0.524997,-0.27499 -0.499999,-0.3 -0.525,-0.25 -0.525001,-0.275 -0.525,-0.25 -0.525,-0.25 L 58.912539,3.6125 58.362541,3.36251 57.81254,3.13751 57.287539,2.93751 56.737537,2.7125 56.187539,2.51251 55.637541,2.3375 55.087543,2.13751 54.51254,1.96251 53.962542,1.78751 53.412543,1.63751 52.83754,1.4875 52.262537,1.33751 51.712539,1.18751 51.137543,1.0625 50.56254,0.93751 l -0.574999,-0.125 -0.575,-0.10001 -0.575,-0.1 -0.575003,-0.1 -0.574996,-0.075 -0.575003,-0.075 -0.574996,-0.075 -0.600001,-0.05 -0.575003,-0.05 -0.574996,-0.05 -0.600001,-0.025 -0.575003,-0.025 -0.574999,-0.025 h -0.600001 -0.574996 -0.600001 -0.575003 l -0.574996,0.025 -0.600001,0.05 -0.575003,0.025 -0.574996,0.05"
       style="fill:none;stroke:#005f7f;stroke-width:0.124996;stroke-linecap:round;stroke-linejoin:bevel;stroke-miterlimit:1.41499;stroke-dasharray:none;stroke-opacity:1"
       id="path1490" />
    <path
       d="m 38.362539,0.21251 -0.575003,0.05 -0.599998,0.075 -0.575003,0.075 -0.575003,0.075 -0.574996,0.075 -0.575003,0.1 -0.574996,0.1 -0.575003,0.125 -0.574996,0.10001 -0.575003,0.12499 -0.574996,0.15001 -0.550002,0.14999 -0.574999,0.15 -0.550002,0.15001 -0.575,0.17499 -0.550001,0.17501 -0.549999,0.175 -0.575003,0.175 -0.549998,0.2 -0.525,0.225 -0.549998,0.2 -0.549998,0.22499 -0.525001,0.22501 -0.549998,0.225 -0.525,0.24999 -0.525001,0.25 -0.525,0.25 -0.525,0.275 -0.525001,0.27501 -0.500002,0.27499 -0.525001,0.30001 -0.500002,0.275 -0.499996,0.29999 -0.500002,0.325 -0.474998,0.3 -0.499999,0.325 -0.475001,0.32501 -0.499999,0.35 -0.45,0.32499 -0.474997,0.35 -0.475005,0.35 -0.45,0.37501 -0.45,0.35 -0.449999,0.375 -0.45,0.39999 -0.449996,0.37501 -0.425002,0.39999 -0.425002,0.40001 -0.425002,0.4 -0.424999,0.4 -0.399997,0.425 -0.400004,0.42499 -0.399997,0.42501 -0.400001,0.42499 -0.399997,0.42501 -0.375006,0.45 -0.374999,0.45 -0.374996,0.44999 -0.350001,0.47501 -0.350002,0.45 -0.349998,0.47499 -0.350001,0.475 -0.350002,0.47501 -0.325,0.47499 -0.324996,0.50001 -0.300002,0.47499 -0.324997,0.50001 -0.300006,0.5 -0.299995,0.49999 -0.275001,0.525 -0.274997,0.50001 -0.275008,0.525 -0.274997,0.525 -0.250003,0.525 -0.249993,0.52499 -0.250003,0.52501 -0.249999,0.525 -0.225002,0.55 -0.224998,0.55 -0.2,0.525 -0.225002,0.54999 -0.199997,0.55 -0.175002,0.55001 -0.199997,0.55 -0.174999,0.57499 -0.150004,0.55001 -0.174999,0.57499 -0.150002,0.55 -0.150001,0.575 -0.124999,0.55 -0.124997,0.57501 -0.125003,0.57499 -0.124996,0.575 -0.100002,0.575 -0.1,0.57501 -0.075,0.57499 -0.1,0.57501 -0.075,0.6 -0.05,0.57499 -0.075,0.57501 -0.02501,0.57499 -0.05,0.6 -0.02501,0.57501 -0.02501,0.575 -0.02501,0.6 v 0.57499 0.6 0.57501 l 0.02501,0.57499 0.02501,0.6 0.02501,0.57501 0.05,0.57499 0.02501,0.6 0.075,0.575 0.05,0.57501 0.075,0.57499 0.1,0.57501 0.075,0.6 0.1,0.57499"
       style="fill:none;stroke:#005f7f;stroke-width:0.124996;stroke-linecap:round;stroke-linejoin:bevel;stroke-miterlimit:1.41499;stroke-dasharray:none;stroke-opacity:1"
       id="path1492" />
    <path
       d="m 0.687538,49.2875 0.100002,0.57501 0.124996,0.57499 0.125003,0.55001 0.124997,0.57499 0.124999,0.57501 0.150001,0.575 0.150002,0.54999 0.174999,0.57501 0.150004,0.54999 0.174999,0.55 0.199997,0.57501 0.175002,0.54999 0.199997,0.55 0.225002,0.525 0.2,0.55001 0.224998,0.55 0.225002,0.525 0.249999,0.54999 0.250003,0.525 0.249993,0.52501 0.250003,0.525 0.274997,0.525 0.275008,0.49999 0.274997,0.525 0.275001,0.5 0.299995,0.50001 0.300006,0.49999 0.324997,0.5 0.300002,0.50001 0.324996,0.47499 0.325,0.5 0.350002,0.475 0.350001,0.47501 0.349998,0.47499 0.350002,0.45 0.350001,0.45 0.374996,0.47501 0.374999,0.44999 0.375006,0.425 0.399997,0.45001 0.400001,0.42499 0.399997,0.425 0.400004,0.425 0.399997,0.425 0.424999,0.4 0.425002,0.4 0.425002,0.4 0.425002,0.40001 0.449996,0.37499 0.45,0.375 0.449999,0.37501 0.45,0.37499 0.45,0.35 0.475005,0.375 0.474997,0.35 0.45,0.325 0.499999,0.35001 0.475001,0.325 0.499999,0.29999 0.474998,0.325 0.500002,0.3 0.499996,0.3 0.500002,0.3 0.525001,0.3 0.500002,0.275 0.525001,0.275 0.525,0.25 0.525,0.275 0.525001,0.25 0.525,0.22501 0.549998,0.25 0.525001,0.22499 0.549998,0.22501 0.549998,0.19999 0.525,0.2 0.549998,0.20001 0.575003,0.19999 0.549999,0.17501 0.550001,0.17499 0.575,0.175 0.550002,0.15 0.574999,0.15 0.550002,0.15 0.574996,0.125 0.575003,0.12501 0.574996,0.12499 0.575003,0.12501 0.574996,0.1 0.575003,0.10001 0.574996,0.075 0.575003,0.075 0.575003,0.075 0.599998,0.075 0.575003,0.05 0.574996,0.05 0.575003,0.025 0.600001,0.025 0.574996,0.025 0.575003,0.025 h 0.600001 0.574996 0.600001 l 0.574999,-0.025 0.575003,-0.025 0.600001,-0.05 0.574996,-0.025 0.575003,-0.05 0.600001,-0.075 0.574996,-0.05 0.575003,-0.075 0.574996,-0.1 0.575003,-0.075 0.575,-0.1 0.574999,-0.125 0.575,-0.1 0.575003,-0.125 0.574996,-0.125 0.549998,-0.15 0.575003,-0.15"
       style="fill:none;stroke:#005f7f;stroke-width:0.124996;stroke-linecap:round;stroke-linejoin:bevel;stroke-miterlimit:1.41499;stroke-dasharray:none;stroke-opacity:1"
       id="path1494" />
    <path
       d="m 52.837536,82.5375 0.575003,-0.15 0.549999,-0.17499 0.549998,-0.15001 0.575003,-0.2 0.549998,-0.17499 0.549998,-0.20001 0.549998,-0.2 0.550002,-0.2 0.525,-0.225 0.550002,-0.225 0.549998,-0.225 0.525001,-0.25 0.525,-0.22499 0.525,-0.27501 0.525001,-0.25 0.525,-0.275 0.499999,-0.27499 0.524997,-0.275 0.500002,-0.30001 0.500003,-0.3 0.499995,-0.3 0.500005,-0.3 0.5,-0.325 0.475,-0.32499 0.475,-0.32501 0.475,-0.34999 0.475,-0.32501 0.475,-0.35 0.475,-0.37499 0.45,-0.35001 0.45,-0.375 0.45,-0.375 0.425,-0.4 0.45,-0.37499 0.425,-0.40001 0.425,-0.4 0.425,-0.4 0.425,-0.425 0.4,-0.4 0.4,-0.425 0.4,-0.44999 0.375,-0.42501 0.4,-0.45 0.375,-0.425 0.375,-0.45 0.35,-0.47499 0.375,-0.45001 0.35,-0.475 0.35,-0.47499 0.325,-0.47501 0.35,-0.475 0.325,-0.47499 0.3,-0.50001 0.325,-0.5 0.3,-0.49999 0.3,-0.50001 0.3,-0.5 0.275,-0.49999 0.275,-0.525 0.27499,-0.52501 0.27501,-0.49999 0.24999,-0.55001 0.25001,-0.525 0.225,-0.525 0.25,-0.525 0.225,-0.54999 0.225,-0.55001 0.2,-0.525 0.2,-0.55 0.2,-0.55 0.175,-0.575 0.2,-0.55 0.175,-0.55 0.15,-0.575 0.15,-0.55 0.15,-0.57499 0.15,-0.55001 0.125,-0.57499 0.12499,-0.57501 0.12501,-0.57499 0.1,-0.57501 0.1,-0.575 0.1,-0.575 0.1,-0.575 0.075,-0.575 0.05,-0.57499 0.075,-0.60001 0.05,-0.575 0.05,-0.57499 0.025,-0.60001 0.025,-0.575 0.025,-0.57499 0.025,-0.60001 v -0.575"
       style="fill:none;stroke:#005f7f;stroke-width:0.124996;stroke-linecap:round;stroke-linejoin:bevel;stroke-miterlimit:1.41499;stroke-dasharray:none;stroke-opacity:1"
       id="path1496" />
  </g>
  <path
     d="m 47.812534,17.5125 h 1.525002"
     style="fill:none;stroke:#005f7f;stroke-width:0.124996;stroke-linecap:round;stroke-linejoin:bevel;stroke-miterlimit:1.41499;stroke-dasharray:none;stroke-opacity:1"
     id="path1498" />
  <path
     d="m 34.537535,17.5125 h 1.425004"
     style="fill:none;stroke:#005f7f;stroke-width:0.124996;stroke-linecap:round;stroke-linejoin:bevel;stroke-miterlimit:1.41499;stroke-dasharray:none;stroke-opacity:1"
     id="path1500" />
  <path
     d="M 28.337536,35.5125 V 33.01251"
     style="fill:none;stroke:#005f7f;stroke-width:0.124996;stroke-linecap:round;stroke-linejoin:bevel;stroke-miterlimit:1.41499;stroke-dasharray:none;stroke-opacity:1"
     id="path1502" />
  <path
     d="M 55.587534,35.5125 V 33.01251"
     style="fill:none;stroke:#005f7f;stroke-width:0.124996;stroke-linecap:round;stroke-linejoin:bevel;stroke-miterlimit:1.41499;stroke-dasharray:none;stroke-opacity:1"
     id="path1504" />
  <path
     d="m 44.087536,66.8375 h -4.199999 v 0 1.65 0 h 4.199999 v 0 -1.65"
     style="fill:#005f7f;fill-opacity:1;fill-rule:evenodd;stroke:#005f7f;stroke-width:0.264583;stroke-linecap:round;stroke-linejoin:bevel;stroke-miterlimit:1.41499;stroke-dasharray:none;stroke-opacity:1"
     id="path1506" />
  <path
     d="M 55.837537,36.96251 H 28.01254 v 0 l 3.074994,15.22499 v 0 l 21.750002,-0.025 v 0 l 3.000001,-15.19999"
     style="fill:#005f7f;fill-opacity:1;fill-rule:evenodd;stroke:#005f7f;stroke-width:0.264583;stroke-linecap:round;stroke-linejoin:bevel;stroke-miterlimit:1.41499;stroke-dasharray:none;stroke-opacity:1"
     id="path1508" />
  <path
     d="m 22.11254,33.2375 v 3.95 0 h 3.074994 v 0 15.95 0 l -3.074994,-1.05 v 0 2.325 0 l 2.974996,1.375 v 0 h 10.525001 v 0 2.2 0 h -10.375 v 0 l -3.124997,-1.3 v 0 5.475 0 l 3.074994,1.35001 v 0 0.72499 0 h 12.375004 v 0 6.125 0 H 25.187534 v 0 -2.225 0 l -4.274996,3.8 v 0 0 0 l -0.175002,0.075 -0.199997,0.05 -0.200004,0.025 -0.175003,-0.025 -0.199996,-0.075 -0.174999,-0.1 -0.149998,-0.12501 -0.125003,-0.15 v 0 0 0 -39.32499 0 l 2.600004,0.94999"
     style="fill:#005f7f;fill-opacity:1;fill-rule:evenodd;stroke:#005f7f;stroke-width:0.264583;stroke-linecap:round;stroke-linejoin:bevel;stroke-miterlimit:1.41499;stroke-dasharray:none;stroke-opacity:1"
     id="path1510" />
  <path
     d="m 61.787533,33.18751 v 3.99999 0 h -2.849996 v 0 15.9 0 l 2.849996,-1.025 v 0 2.47501 0 l -3.274998,1.24999 v 0 H 48.262534 v 0 2.2 0 h 10.425 v 0 l 3.099999,-1.275 v 0 5.45 0 l -2.849996,1.35001 v 0 0.72499 0 H 46.387538 v 0 6.125 0 h 12.549999 v 0 -2.2 0 l 4.324999,3.85 v 0 0 0 l 0.150001,0.075 0.174999,0.025 h 0.175002 l 0.150001,-0.05 0.149994,-0.075 0.150001,-0.1 0.100002,-0.125 0.075,-0.15001 v 0 h 0.02501 v 0 -39.32499 0 l -2.625002,0.9"
     style="fill:#005f7f;fill-opacity:1;fill-rule:evenodd;stroke:#005f7f;stroke-width:0.264583;stroke-linecap:round;stroke-linejoin:bevel;stroke-miterlimit:1.41499;stroke-dasharray:none;stroke-opacity:1"
     id="path1512" />
  <path
     d="m 31.787534,27.61251 h -7.624995 v 0 l 1.374997,2.27499 v 0 h 7.849997 v 0 l -1.599999,-2.27499"
     style="fill:#005f7f;fill-opacity:1;fill-rule:evenodd;stroke:#005f7f;stroke-width:0.264583;stroke-linecap:round;stroke-linejoin:bevel;stroke-miterlimit:1.41499;stroke-dasharray:none;stroke-opacity:1"
     id="path1514" />
  <path
     d="m 19.512536,32.28751 4.650003,-4.675 v 0 l 1.374997,2.27499 v 0 l -3.424996,3.35 v 0 l -2.600004,-0.94999"
     style="fill:#005f7f;fill-opacity:1;fill-rule:evenodd;stroke:#005f7f;stroke-width:0.264583;stroke-linecap:round;stroke-linejoin:bevel;stroke-miterlimit:1.41499;stroke-dasharray:none;stroke-opacity:1"
     id="path1516" />
  <path
     d="m 31.787534,27.61251 4.575002,-5.725 v 0 l 1.425,2.09999 v 0 l -4.400003,5.9 v 0 l -1.599999,-2.27499"
     style="fill:#005f7f;fill-opacity:1;fill-rule:evenodd;stroke:#005f7f;stroke-width:0.264583;stroke-linecap:round;stroke-linejoin:bevel;stroke-miterlimit:1.41499;stroke-dasharray:none;stroke-opacity:1"
     id="path1518" />
  <path
     d="m 36.362536,21.88751 h 11.100001 v 0 l -1.400003,2.09999 v 0 h -8.274998 v 0 l -1.425,-2.09999"
     style="fill:#005f7f;fill-opacity:1;fill-rule:evenodd;stroke:#005f7f;stroke-width:0.264583;stroke-linecap:round;stroke-linejoin:bevel;stroke-miterlimit:1.41499;stroke-dasharray:none;stroke-opacity:1"
     id="path1520" />
  <path
     d="m 50.462538,29.8875 -4.400004,-5.9 v 0 l 1.400003,-2.09999 v 0 l 4.599999,5.725 v 0 l -1.599998,2.27499"
     style="fill:#005f7f;fill-opacity:1;fill-rule:evenodd;stroke:#005f7f;stroke-width:0.264583;stroke-linecap:round;stroke-linejoin:bevel;stroke-miterlimit:1.41499;stroke-dasharray:none;stroke-opacity:1"
     id="path1522" />
  <path
     d="m 50.462538,29.8875 h 8.049997 v 0 l 1.125001,-2.27499 v 0 h -7.575 v 0 l -1.599998,2.27499"
     style="fill:#005f7f;fill-opacity:1;fill-rule:evenodd;stroke:#005f7f;stroke-width:0.264583;stroke-linecap:round;stroke-linejoin:bevel;stroke-miterlimit:1.41499;stroke-dasharray:none;stroke-opacity:1"
     id="path1524" />
  <path
     d="M 61.787533,33.18751 58.512535,29.8875 v 0 l 1.125001,-2.27499 v 0 l 4.774999,4.675 v 0 l -2.625002,0.9"
     style="fill:#005f7f;fill-opacity:1;fill-rule:evenodd;stroke:#005f7f;stroke-width:0.264583;stroke-linecap:round;stroke-linejoin:bevel;stroke-miterlimit:1.41499;stroke-dasharray:none;stroke-opacity:1"
     id="path1526" />
  <path
     d="m 31.662537,13.23751 -2.824998,2.75 v 0 L 27.887537,15.0375 v 0 l 3.624999,-3.575 v 0 l 20.850003,0.025 v 0 l 3.574997,3.54999 v 0 l -0.975,0.95001 v 0 l -2.749998,-2.825 v 0 l -1.425,-0.425 v 0 h -17.625 v 0 l -1.500001,0.5"
     style="fill:#005f7f;fill-opacity:1;fill-rule:evenodd;stroke:#005f7f;stroke-width:0.264583;stroke-linecap:round;stroke-linejoin:bevel;stroke-miterlimit:1.41499;stroke-dasharray:none;stroke-opacity:1"
     id="path1528" />
  <path
     d="m 22.11254,62.1625 h 39.674993 v 0 l -2.849996,1.35001 v 0 H 25.187534 v 0 L 22.11254,62.1625"
     style="fill:#005f7f;fill-opacity:1;fill-rule:evenodd;stroke:#005f7f;stroke-width:0.264583;stroke-linecap:round;stroke-linejoin:bevel;stroke-miterlimit:1.41499;stroke-dasharray:none;stroke-opacity:1"
     id="path1530" />
  <path
     d="m 28.337536,33.01251 h 27.249998 v 0 2.49999 0 H 28.337536 v 0 -2.49999"
     style="fill:#005f7f;fill-opacity:1;fill-rule:evenodd;stroke:#005f7f;stroke-width:0.264583;stroke-linecap:round;stroke-linejoin:bevel;stroke-miterlimit:1.41499;stroke-dasharray:none;stroke-opacity:1"
     id="path1532" />
  <path
     d="m 31.662537,13.23751 4.300002,4.27499 v 0 h -1.425004 v 0 0.85001 0 h 2.300005 v 0 l 3.549996,3.49999 v 0 l 1.199998,-0.55 v 0 l -2.899995,-2.94999 v 0 L 37.837538,17.5125 v 0 l -4.675,-4.77499 v 0 l -1.500001,0.5"
     style="fill:#005f7f;fill-opacity:1;fill-rule:evenodd;stroke:#005f7f;stroke-width:0.264583;stroke-linecap:round;stroke-linejoin:bevel;stroke-miterlimit:1.41499;stroke-dasharray:none;stroke-opacity:1"
     id="path1534" />
  <path
     d="m 37.837538,17.5125 h 8.149996 v 0 l -0.849997,0.85001 v 0 h -2.899999 v 0 h -0.650004 v 0 h -2.899995 v 0 L 37.837538,17.5125"
     style="fill:#005f7f;fill-opacity:1;fill-rule:evenodd;stroke:#005f7f;stroke-width:0.264583;stroke-linecap:round;stroke-linejoin:bevel;stroke-miterlimit:1.41499;stroke-dasharray:none;stroke-opacity:1"
     id="path1536" />
  <path
     d="m 41.587534,18.36251 v 2.94999 0 l -1.199998,0.55 v 0 h 3.150002 v 0 l -1.3,-0.55 v 0 -2.94999 0 h -0.650004"
     style="fill:#005f7f;fill-opacity:1;fill-rule:evenodd;stroke:#005f7f;stroke-width:0.264583;stroke-linecap:round;stroke-linejoin:bevel;stroke-miterlimit:1.41499;stroke-dasharray:none;stroke-opacity:1"
     id="path1538" />
  <path
     d="m 52.212538,13.16251 -4.400004,4.34999 v 0 h 1.525002 v 0 0.85001 0 h -2.324999 v 0 l -3.474999,3.49999 v 0 l -1.3,-0.55 v 0 l 2.899999,-2.94999 v 0 l 0.849997,-0.85001 v 0 l 4.800004,-4.77499 v 0 l 1.425,0.425"
     style="fill:#005f7f;fill-opacity:1;fill-rule:evenodd;stroke:#005f7f;stroke-width:0.264583;stroke-linecap:round;stroke-linejoin:bevel;stroke-miterlimit:1.41499;stroke-dasharray:none;stroke-opacity:1"
     id="path1540" />
  <path
     style="fill:#005f7f;fill-opacity:1;stroke-width:0.0287689"
     d="M 41.614349,30.648756 C 41.323156,30.59916 41.24639,30.572882 40.971313,30.428644 40.724404,30.299178 40.60182,30.211069 40.386338,30.0082 40.137826,29.774232 40.099599,29.723379 39.9538,29.432824 39.813812,29.153847 39.785909,29.068622 39.730063,28.749463 l -0.0638,-0.364633 0.06393,-0.368972 c 0.05517,-0.318415 0.08515,-0.412377 0.218776,-0.685744 0.141481,-0.289433 0.178427,-0.339371 0.428149,-0.578689 0.22787,-0.218376 0.328303,-0.290401 0.604144,-0.433254 0.305065,-0.157986 0.357789,-0.175403 0.676651,-0.223531 0.340342,-0.05137 0.351295,-0.05127 0.692727,0.0065 0.304414,0.05152 0.387175,0.07888 0.675486,0.223328 0.279586,0.140073 0.366525,0.201594 0.583166,0.412663 0.227372,0.221525 0.273285,0.284967 0.429345,0.593278 0.165354,0.326673 0.177366,0.364553 0.223528,0.704837 0.04631,0.341357 0.04617,0.37751 -0.0026,0.71229 -0.04774,0.327339 -0.06311,0.37488 -0.21403,0.661683 -0.134315,0.255254 -0.208539,0.355698 -0.426696,0.577421 -0.236244,0.24011 -0.299455,0.286256 -0.599398,0.437579 -0.295579,0.149121 -0.376049,0.176112 -0.679264,0.227846 -0.18918,0.03228 -0.355471,0.0574 -0.369536,0.05584 -0.01408,-0.0016 -0.174371,-0.02819 -0.356238,-0.05917 z"
     id="path8741" />
</svg>
