<?xml version="1.0" encoding="UTF-8" standalone="no"?>
<!-- Created with Inkscape (http://www.inkscape.org/) -->

<svg
   xmlns:dc="http://purl.org/dc/elements/1.1/"
   xmlns:cc="http://creativecommons.org/ns#"
   xmlns:rdf="http://www.w3.org/1999/02/22-rdf-syntax-ns#"
   xmlns:svg="http://www.w3.org/2000/svg"
   xmlns="http://www.w3.org/2000/svg"
   xmlns:sodipodi="http://sodipodi.sourceforge.net/DTD/sodipodi-0.dtd"
   xmlns:inkscape="http://www.inkscape.org/namespaces/inkscape"
   id="svg2"
   version="1.1"
   inkscape:version="0.48.5 r10040"
   width="44.999844"
   height="45.000603"
   xml:space="preserve"
   sodipodi:docname="Cleveland RTA circle.svg"><metadata
     id="metadata8"><rdf:RDF><cc:Work
         rdf:about=""><dc:format>image/svg+xml</dc:format><dc:type
           rdf:resource="http://purl.org/dc/dcmitype/StillImage" /><dc:title /></cc:Work></rdf:RDF></metadata><defs
     id="defs6"><linearGradient
       x1="0"
       y1="0"
       x2="1"
       y2="0"
       gradientUnits="userSpaceOnUse"
       gradientTransform="matrix(-3.05e-5,552.90576,552.90576,3.05e-5,292.30002,68.09375)"
       spreadMethod="pad"
       id="linearGradient24"><stop
         style="stop-opacity:1;stop-color:#ffffff"
         offset="0"
         id="stop26" /><stop
         style="stop-opacity:1;stop-color:#51bbed"
         offset="0.932495"
         id="stop28" /><stop
         style="stop-opacity:1;stop-color:#51bbed"
         offset="0.932495"
         id="stop30" /><stop
         style="stop-opacity:1;stop-color:#51bbed"
         offset="1"
         id="stop32" /></linearGradient><linearGradient
       x1="0"
       y1="0"
       x2="1"
       y2="0"
       gradientUnits="userSpaceOnUse"
       gradientTransform="matrix(3.05e-5,-552.93652,-552.93652,-3.05e-5,292.30002,419.65625)"
       spreadMethod="pad"
       id="linearGradient48"><stop
         style="stop-opacity:1;stop-color:#ffffff"
         offset="0"
         id="stop50" /><stop
         style="stop-opacity:1;stop-color:#51bbed"
         offset="0.932495"
         id="stop52" /><stop
         style="stop-opacity:1;stop-color:#51bbed"
         offset="0.932495"
         id="stop54" /><stop
         style="stop-opacity:1;stop-color:#51bbed"
         offset="1"
         id="stop56" /></linearGradient><clipPath
       clipPathUnits="userSpaceOnUse"
       id="clipPath68"><path
         d="m 288,67.567 288,0 0,371.723 -288,0 0,-371.723 z"
         id="path70"
         inkscape:connector-curvature="0" /></clipPath><clipPath
       clipPathUnits="userSpaceOnUse"
       id="clipPath80"><path
         d="m 22.32,14.564 48.082,0 0,48.724 -48.082,0 0,-48.724 z"
         id="path82"
         inkscape:connector-curvature="0" /></clipPath><clipPath
       clipPathUnits="userSpaceOnUse"
       id="clipPath132"><path
         d="m 495.504,9.399 52.025,0 0,53.203 -52.025,0 0,-53.203 z"
         id="path134"
         inkscape:connector-curvature="0" /></clipPath><clipPath
       clipPathUnits="userSpaceOnUse"
       id="clipPath158"><path
         d="M 0,0 576,0 576,612 0,612 0,0 z"
         id="path160"
         inkscape:connector-curvature="0" /></clipPath><clipPath
       clipPathUnits="userSpaceOnUse"
       id="clipPath184"><path
         d="M 0,0 576,0 576,612 0,612 0,0 z"
         id="path186"
         inkscape:connector-curvature="0" /></clipPath><clipPath
       clipPathUnits="userSpaceOnUse"
       id="clipPath226"><path
         d="m 331.714,496.767 30.814,0 0,18.808 -30.814,0 0,-18.808 z"
         id="path228"
         inkscape:connector-curvature="0" /></clipPath><clipPath
       clipPathUnits="userSpaceOnUse"
       id="clipPath242"><path
         d="M 0,0 576,0 576,612 0,612 0,0 z"
         id="path244"
         inkscape:connector-curvature="0" /></clipPath><clipPath
       clipPathUnits="userSpaceOnUse"
       id="clipPath262"><path
         d="M 0,0 576,0 576,612 0,612 0,0 z"
         id="path264"
         inkscape:connector-curvature="0" /></clipPath><clipPath
       clipPathUnits="userSpaceOnUse"
       id="clipPath284"><path
         d="m 0,67.58 288,0 0,371.688 -288,0 L 0,67.58 z"
         id="path286"
         inkscape:connector-curvature="0" /></clipPath><clipPath
       clipPathUnits="userSpaceOnUse"
       id="clipPath298"><path
         d="M 0,0 576,0 576,612 0,612 0,0 z"
         id="path300"
         inkscape:connector-curvature="0" /></clipPath><clipPath
       clipPathUnits="userSpaceOnUse"
       id="clipPath324"><path
         d="M 0,0 576,0 576,612 0,612 0,0 z"
         id="path326"
         inkscape:connector-curvature="0" /></clipPath><clipPath
       clipPathUnits="userSpaceOnUse"
       id="clipPath352"><path
         d="m 41.4,322.769 70.92,0 0,72.331 -70.92,0 0,-72.331 z"
         id="path354"
         inkscape:connector-curvature="0" /></clipPath><clipPath
       clipPathUnits="userSpaceOnUse"
       id="clipPath364"><path
         d="m 24.12,278.64 108,0 0,40.32 -108,0 0,-40.32 z"
         id="path366"
         inkscape:connector-curvature="0" /></clipPath></defs><sodipodi:namedview
     pagecolor="#ffffff"
     bordercolor="#666666"
     borderopacity="1"
     objecttolerance="10"
     gridtolerance="10"
     guidetolerance="10"
     inkscape:pageopacity="0"
     inkscape:pageshadow="2"
     inkscape:window-width="1920"
     inkscape:window-height="1017"
     id="namedview4"
     showgrid="false"
     fit-margin-top="0"
     fit-margin-left="0"
     fit-margin-right="0"
     fit-margin-bottom="0"
     inkscape:zoom="1.7451211"
     inkscape:cx="-117.55324"
     inkscape:cy="43.398938"
     inkscape:window-x="-8"
     inkscape:window-y="-8"
     inkscape:window-maximized="1"
     inkscape:current-layer="g10" /><g
     id="g10"
     inkscape:groupmode="layer"
     inkscape:label="NineTwelve"
     transform="matrix(1.25,0,0,-1.25,-629.50089,64.350313)"><g
       id="g128"><g
         id="g130"
         clip-path="url(#clipPath132)"><g
           id="g136"
           transform="matrix(0.6038424,0,0,-0.6038627,539.60059,33.479707)"
           style="fill:#d31145;fill-opacity:1"><path
             d="m 0,0 c 0,16.462 -13.348,29.808 -29.81,29.808 -16.462,0 -29.808,-13.346 -29.808,-29.808 0,-16.462 13.346,-29.809 29.808,-29.809 C -13.348,-29.809 0,-16.462 0,0"
             style="fill:#d31145;fill-opacity:1;fill-rule:nonzero;stroke:none"
             id="path138"
             inkscape:connector-curvature="0" /></g><g
           id="g140"
           transform="matrix(0.6038424,0,0,-0.6038627,508.51973,28.73075)"><path
             d="m 0,0 0,-18.403 11.332,0 c 0.222,0.534 1.996,5.26 2.511,6.753 0.113,0.327 0.164,0.722 0.161,0.809 -0.016,0.35 -0.223,0.625 -0.584,1.037 -0.422,0.48 -0.662,0.605 -0.662,1.048 0,0.335 0.124,0.449 0.24,0.698 1.23,2.071 5.738,9.754 5.867,10.064 l -6.333,0 c 0,0 -3.807,-6.537 -4.802,-8.33 -0.172,-0.304 -0.354,-0.709 -0.354,-0.932 0,-0.612 0.399,-0.919 0.818,-1.394 0.297,-0.337 0.583,-0.485 0.583,-0.902 0,-0.347 -0.208,-0.673 -0.351,-1.04 l -2.191,-5.522 c -0.126,-0.312 -0.154,-0.579 -0.514,-0.567 -0.319,0.01 -0.318,0.404 -0.318,0.664 L 5.403,0 0,0 z"
             style="fill:#ffffff;fill-opacity:1;fill-rule:nonzero;stroke:none"
             id="path142"
             inkscape:connector-curvature="0" /></g><g
           id="g144"
           transform="matrix(0.6038424,0,0,-0.6038627,517.94119,39.843877)"><path
             d="m 0,0 0,2.78 3.467,0 c 0.52,0 0.764,0.375 0.764,0.747 l 0,16.882 5.297,0 0,-16.895 c 0,-0.362 0.236,-0.734 0.714,-0.734 l 3.599,0 0,-2.78 L 0,0 z"
             style="fill:#ffffff;fill-opacity:1;fill-rule:nonzero;stroke:none"
             id="path146"
             inkscape:connector-curvature="0" /></g><g
           id="g148"
           transform="matrix(0.6038424,0,0,-0.6038627,531.25343,28.772054)"><path
             d="m 0,0 5.676,0 0,-18.335 -8.888,0 -8.592,20.409 5.987,0 3.539,-8.442 c 0.147,-0.353 0.243,-0.541 0.243,-0.908 0,-0.374 -0.076,-0.656 -0.598,-1.262 -0.451,-0.497 -0.579,-0.661 -0.579,-1.194 0,-0.301 0.102,-0.576 0.282,-0.962 l 2.313,-5.567 c 0.087,-0.17 0.145,-0.475 0.365,-0.475 0.169,0 0.249,0.183 0.252,0.355 L 0,0 z"
             style="fill:#ffffff;fill-opacity:1;fill-rule:nonzero;stroke:none"
             id="path150"
             inkscape:connector-curvature="0" /></g></g></g></g></svg>