<?xml version="1.0" encoding="UTF-8"?>
<svg width="600" height="325" version="1.1" xmlns="http://www.w3.org/2000/svg">
 <g fill="#de2b26">
  <path d="m354.7 222.7h-44.535l34.779-103.09h-58.795l11.305-33.688h150.97l-11.488 33.688h-47.201zm-242.92-135.51h41.499l10.25 83.132 74.262-84.396h46.974l-46.262 136.8h-40.894l25.534-75.548-66.206 75.548-27.462-0.10682-8.8349-75.005-53.298 75.112h-50.285zm440.8 36.345c-7.9714-6.3513-17.376-10.851-28.427-10.851-11.292 0-22.699 5.1229-25.592 11.67-1.8782 4.3173 0.68543 7.8023 7.7355 10.691 2.1052 0.8145 3.8544 1.2195 18.533 4.9226 28.953 6.9611 37.209 18.226 28.53 37.93-13.588 30.746-48.069 48.781-93.347 48.781-22.401 0-38.624-5.3187-53.521-15.373l26.327-29.723c10.459 9.4402 25.014 14.955 39.118 14.955 14.069 0 25.534-5.3143 29.086-13.321 3.2669-7.375-1.5444-10.86-21.756-15.787-18.987-4.5042-25.824-7.1747-30.831-11.474-6.4759-5.9463-7.2949-14.768-2.0029-26.66 12.124-27.479 45.781-46.133 83.03-46.133 19.339 0 34.885 2.4925 50.227 9.6627l-27.105 30.711z"/>
  <path d="m581.97 117.61c1.1216 0 2.1186-0.10682 2.1186-1.4376 0-1.0994-1.086-1.2284-1.994-1.2284h-1.8115v2.6705h1.6869zm-1.6913 5.1896h-1.491v-9.1464h3.4716c2.1987 0 3.3248 0.76999 3.3248 2.626 0 1.6602-1.0148 2.3411-2.3856 2.5014l2.5592 4.0191h-1.6913l-2.3678-3.9078h-1.4154v3.9078zm1.6468-11.55c-3.5785 0-6.3647 2.804-6.3647 6.8142 0 3.761 2.4346 6.832 6.3647 6.832 3.5295 0 6.3202-2.7862 6.3202-6.832 0-4.0102-2.7907-6.8142-6.3202-6.8142zm0 15.07c-4.7579 4e-3 -8.1405-3.5384-8.1405-8.2563 0-4.9582 3.7609-8.2518 8.1361-8.2518 4.3262 0 8.0827 3.2981 8.0827 8.2563 0 4.976-3.7565 8.2563-8.0827 8.2563z"/>
  <path d="m44.63 168.85v-4e-3l-0.15578 0.0134-11.906 0.80559c-1.1661 0.0801-0.62311 1.3397-0.62311 1.3397 1.0994 2.1364 2.2254 4.2728 3.4004 6.3914 0 0 0.16468 0.63646 1.4599 0.50739l7.4284-0.97473 0.29375-0.0222v-0.0133l0.0801-0.0134 5.9641-8.4298-5.9418 0.39612zm140.77-75.401c1.2062 0.89461 2.5815 1.9584 3.7921 2.9108 0 0 1.1928 0.5608 1.6023-0.34716l15.961-36.118c0.75218-1.58-0.18694-2.1052-0.18694-2.1052-1.767-1.3976-3.6408-2.8174-5.4166-4.1704 0 0-1.5044-0.85011-2.1854 0.72548l-14.033 37.52c-0.41392 0.96583 0.46734 1.5845 0.46734 1.5845m9.271 7.3883c1.1528 0.96138 2.3011 1.9673 3.4538 2.9732 0 0 0.90796 0.79225 1.6023-0.2893l20.745-32.157s0.859-1.1928-0.2448-2.172c-1.7803-1.5667-3.5606-3.1245-5.3632-4.6422 0 0-0.89016-0.87681-1.718 0.54745l-18.929 33.937c-0.57861 1.0148 0.45398 1.8026 0.45398 1.8026m-129.77 32.584c1.2818 0.31601 1.0994-0.63646 1.0994-0.63646-0.22254-1.2062-0.48068-2.6838-0.64536-3.8455 0 0-0.10237-0.91687-1.3085-1.2907l-8.9906-3.2046-42.461-14.83c-1.2106-0.40057-1.0415 0.84565-1.0415 0.84565 0.28485 1.8337 0.62311 3.8722 0.97027 5.7193 0 0 0.0801 0.85456 1.0014 1.1394l39.403 12.422zm2.2165 4.9894s-0.13353-1.0014-1.2462-1.2996l-14.26-3.6675-36.394-9.2577c-1.0237-0.22254-0.78334 0.75664-0.78334 0.75664 0.48514 1.9717 1.1127 4.3796 1.6602 6.3647 0 0 0.0445 0.53409 1.1839 0.89016l32.469 7.1658 17.327 3.7698c1.3308 0.26704 0.95247-0.80115 0.95247-0.80115-0.32491-1.2996-0.62311-2.7105-0.90796-3.9167m-3.5963-14.389c1.3708 0.45843 1.2907-0.5074 1.2907-0.5074a133.37 133.37 0 0 1-0.20029-3.7565s-0.0356-0.84565-1.3664-1.3708l-4.4953-1.945-47.868-21.128c-0.88571-0.37832-0.75663 0.88126-0.75663 0.88126 0.089 1.9005 0.22254 3.8232 0.40947 5.7415 0 0 0.17803 0.66764 0.8323 0.93468l45.078 18.373zm93.565-47.521c1.3619 0.63201 2.7239 1.2818 4.0947 1.9672 0 0 1.1706 0.46734 1.2062-0.76554l0.45398-30.145 0.11128-15.124c0-3.0444-1.1439-3.1645-1.1439-3.1645-1.7002-0.85456-3.4182-1.6913-5.1184-2.4925 0 0-1.7981-0.91241-1.6913 2.0607l0.52074 19.232 0.83675 26.616c0 1.896 0.72994 1.8159 0.72994 1.8159m14.955 6.4314 4.7312-35.108 0.95247-7.5041s0.36052-2.1586-0.66762-2.7729c-1.7403-1.0237-3.4805-2.0251-5.2253-2.9954 0 0-1.9138-1.4243-2.0919 1.0459l-0.97917 11.87-2.7328 32.081c-0.11572 1.4421 0.69878 1.856 0.69878 1.856 1.3263 0.72548 2.6616 1.4955 3.9746 2.2833 0 0 1.2062 0.089 1.3352-0.75664m3.9701 4.0191c1.353 0.86791 2.7061 1.7759 4.0502 2.7061 0 0 1.0904 0.7967 1.4821-0.54299l10.624-39.056 0.31155-1.1528c0.38277-1.4376-0.86345-2.0741-0.86345-2.0741a255.54 255.54 0 0 0-5.0917-3.4138s-1.5266-1.0994-1.905 0.77889l-1.0237 4.3618-7.9803 36.523c-0.37832 1.5889 0.39167 1.8693 0.39167 1.8693m102.44 52.083c-1.1038-1.8694-2.2566-3.7342-3.4271-5.5991 0 0-0.52519-0.74328-2.2165-0.6053l-3.2001 9.5381 7.6866-1.5088c1.7358-0.33826 1.1572-1.8248 1.1572-1.8248m-106.35 114.72a90.472 90.472 0 0 1-3.9835-1.5088s-0.95248-0.38722-0.86346 1.0682l4.2639 47.646c0.17804 1.6468 0.95249 1.8382 0.95249 1.8382 1.9584 0.78334 3.9167 1.5489 5.8751 2.2521 0 0 1.4065 0.44508 1.2462-1.0326l-6.289-48.812c-0.11127-1.3041-1.2017-1.451-1.2017-1.451m-19.419-8.8215c-1.3263-0.75663-2.4034-1.3664-3.7476-2.1408 0 0-1.313-1.0103-1.4688 1.2685l-5.7772 41.669c-0.22254 1.6824 0.72103 2.2165 0.72103 2.2165 1.945 1.1394 3.9034 2.2521 5.8484 3.3203 0 0 1.5088 1.313 1.5088-1.2106l3.8945-42.768c0.25816-1.7091-0.97918-2.3545-0.97918-2.3545m-28.036-19.33c-1.2685-1.0593-2.4924-2.1364-3.7387-3.2268 0 0-0.69877-1.0904-1.8471 0.66762l-20.229 31.178c-0.89906 1.3486-0.23144 1.7892-0.23144 1.7892 1.8827 1.6646 3.8722 3.4271 5.7861 5.0606 0 0 0.97918 1.086 1.8872-0.48958l18.471-32.602c0.8145-1.4688-0.0979-2.3767-0.0979-2.3767m78.41-117.26c1.1884 1.1394 2.2966 2.2076 3.4716 3.396 0 0 0.84566 0.92576 1.8872-0.23145l25.156-27.488c1.1261-1.126 0.15578-2.1186 0.15578-2.1186a292.84 292.84 0 0 0-5.0561-4.9226s-0.95692-1.0459-2.2388 0.40058l-23.389 29.019c-0.89906 1.1127 0.0134 1.945 0.0134 1.945m83.626 45.55c-0.97028-1.8916-1.718-3.2936-2.715-5.1674 0 0-0.63647-1.1483-2.2833-1.0014l-14.425 1.5756-2.6705 7.8557 21.475-1.3442c1.4643-0.22254 0.61866-1.9138 0.61866-1.9138m-33.51 41.606s0.24035 1.0904 1.1572 1.4421l33.399 11.955 17.723 6.2623c1.3798 0.46733 1.5266-0.94357 1.5266-0.94357-0.26704-1.8159-0.54744-3.3203-0.8768-5.1585 0 0 0.0134-0.8323-1.3798-1.3486l-15.711-5.1407-35.206-11.194c-1.54-0.44508-1.1795 0.95247-1.1795 0.95247 0.18694 1.0638 0.37832 2.1364 0.54745 3.1734m-90.632 54.34c-1.3976-0.61422-2.5014-1.2818-3.9256-1.8382-0.98808-0.39613-1.2551 0.0534-1.2685 1.6691l-0.78779 44.277c0 1.6245 0.74773 2.0251 0.74773 2.0251 2.123 1.0415 4.2149 2.0518 6.3291 3.0176 0 0 1.0237 0.41393 1.0237-1.2729l-1.1305-46.191c-0.18248-1.4688-0.98809-1.6913-0.98809-1.6913m-19.29-10.526c-1.2507-0.80115-2.6794-1.718-3.9123-2.5592 0 0-1.0459-0.96138-1.4421 0.59641l-10.798 38.544c-0.68099 2.5058 0.38722 2.6126 0.38722 2.6126 2.0162 1.3798 4.0413 2.6927 6.0754 4.028 0 0 0.96138 0.86346 1.4955-1.5177l8.7548-39.185c0.44063-1.9851-0.5608-2.5192-0.5608-2.5192m-9.4268-6.4893c-1.2863-0.94358-2.8174-2.0429-4.0814-3.0355 0 0-0.85901-0.69433-1.5266 0.99253l-15.444 34.712c-0.83676 1.9539 0 2.2966 0 2.2966 1.9672 1.5311 3.9345 3.0399 5.9107 4.4909 0 0 1.0014 1.175 1.7848-0.83675l13.668-36.167c0.71212-1.896-0.31156-2.4479-0.31156-2.4479m-17.897-15.026c-1.2551-1.1928-2.626-2.5014-3.8544-3.7298 0 0-0.44508-0.69433-1.6557 0.5252l-24.978 27.31c-0.88126 0.87681-0.31155 1.4154-0.31155 1.4154 1.9049 1.896 3.9256 3.85 5.8439 5.6792 0 0 0.69877 0.63202 1.6023-0.2804l23.144-28.712c1.0103-1.3753 0.20919-2.2076 0.20919-2.2076m-8.4877-8.5723c-1.1572-1.2284-2.2699-2.4702-3.4049-3.7298 0 0-0.63647-1.0148-1.9984-0.0222l-29.42 22.891c-0.94358 0.72548-0.42727 1.2106-0.42727 1.2106 1.8782 2.1275 3.8143 4.2283 5.7593 6.3157 0 0 0.49849 0.48959 1.3085-0.21364l27.88-24.613c1.1038-1.0326 0.30266-1.8382 0.30266-1.8382m-12.979-12.996-6.2311 3.3693-11.679 16.553 22.477-14.02c1.4243-0.90351 0.61422-1.7937 0.61422-1.7937-1.0415-1.2729-2.2388-2.7016-3.2313-3.979 0 0-0.54299-0.85455-1.9494-0.13352m160.91 4.4286c-1.7536-0.74328-1.4554 0.61422-1.4554 0.61422 0.10682 1.0994 0.18693 2.2032 0.23144 3.2847 0 0 0.0979 1.0904 0.98808 1.4777l29.731 13.317 22.396 9.9921c1.2907 0.56081 1.2017-0.55635 1.2017-0.55635a120.97 120.97 0 0 0-0.33382-4.9894s0.089-0.97473-0.58305-1.3887l-20.99-8.8705zm-235.81-61.488c-1.1038-0.16023-0.74329 0.91241-0.74329 0.91241 0.71213 2.1141 1.4732 4.2372 2.2922 6.4003 0 0 0.0445 0.72549 1.2996 0.87681l24.666 2.9108 15.07 1.807 3.9345-5.5858-17.501-2.7729zm5.8706 15.213c-1.3174-0.049-0.71213 1.126-0.71213 1.126 0.85901 2.0563 1.7625 4.1037 2.715 6.1555 0 0 0.43618 0.96138 1.6913 0.99253l16.041 0.16913 9.3334 0.0712 4.8158-6.8098-13.157-0.67207zm69.571-86.181c0.54745 0.64982 1.2062 0.36496 1.2062 0.36496 0.859-0.26704 2.0696-0.54299 2.9642-0.77889 0 0 0.7255-0.22254 0.31157-0.97027l-34.218-53.112c-0.64982-1.2284-1.6246-0.72993-1.6246-0.72993-1.3086 0.35606-2.5726 0.72993-3.8678 1.1394 0 0-1.3842 0.23144-0.64092 1.5355l35.865 52.551zm21.497-9.1064 2.5103 6.151c0.33826 0.89462 1.5845 0.99254 1.5845 0.99254 1.1261 0.089 2.2922 0.20474 3.4405 0.36052 0 0 1.0593 0.0445 0.56525-0.80116l-3.3336-8.8571-16.851-44.691c-0.41393-1.3442-1.767-1.5578-1.767-1.5578-1.5133-0.16468-3.0088-0.316-4.5042-0.43617 0 0-1.8337-0.24035-1.2329 1.3708zm8.0293-3.4939 3.4627 10.637c0.37387 0.92132 1.2596 1.1305 1.2596 1.1305 0.31155 0.0846 0 0 3.85 0.81895 0 0 0.95692 0.12462 0.60086-0.87236l-3.8856-13.655-11.185-38.735c-0.50294-1.7358-1.8961-1.8871-1.8961-1.8871-1.5133-0.33381-3.0221-0.64092-4.5087-0.90796 0 0-1.8827-0.45399-1.2195 1.5756zm9.0352-3.1467 3.8722 16.045c0.37387 0.89016 1.0548 1.0548 1.0548 1.0548 1.3219 0.36497 2.6349 0.76999 3.9701 1.2017 0 0 0.8234 0.0178 0.65426-1.0148l-3.6942-18.871-6.1644-31.721c-0.35161-1.678-1.451-2.1052-1.451-2.1052a157.39 157.39 0 0 0-5.1407-1.5355s-1.7625-0.70323-1.0237 2.4791zm10.326-2.5236 2.8841 21.115c0.22254 1.4109 1.0237 1.5578 1.0237 1.5578 1.3174 0.49849 2.6527 1.0237 3.9701 1.5711 0 0 1.0815 0.57861 0.97027-0.82785l-2.2922-24.635-2.3945-24.123c-0.19583-1.8782-1.5355-2.2521-1.5355-2.2521a166.68 166.68 0 0 0-4.9849-1.9361s-1.6023-0.43173-1.4376 1.4421l3.7832 28.018zm-131.99 26.046 52.137 30.755c1.2596 0.56525 1.2373-0.39168 1.2373-0.39168 0.25815-1.7447 0.49849-2.7951 0.56525-3.0889 0 0 0.28485-0.68542-0.68987-1.3308l-52.159-32.682c-1.0103-0.66762-1.1127 0.5875-1.1127 0.5875-0.31156 1.629-0.5341 2.9331-0.78334 4.5932 0 0-0.0757 1.0326 0.81005 1.5578m2.4212-12.262 51.629 35.384c0.76554 0.51184 1.0548-0.47179 1.0548-0.47179 0.26705-0.93467 0.56971-1.856 0.90797-2.764 0 0 0.38277-0.73883-0.44508-1.3842l-51.078-36.897c-1.086-0.72549-1.3085 0.31156-1.3085 0.31156-0.47623 1.402-0.96582 2.9286-1.3842 4.3796 0 0-0.31155 0.89016 0.62312 1.4421m6.6718-16.775c-0.8323-0.64092-1.2996 0.34716-1.2996 0.34716-0.56525 1.0994-1.3352 2.6438-1.8604 3.7788 0 0-0.33381 0.74328 0.44508 1.4376l50.227 39.296c0.87235 0.55636 1.2017-0.22699 1.2017-0.22699 0.38722-0.82785 0.81005-1.6512 1.2373-2.4435 0 0 0.54745-0.66762-0.23144-1.3308l-49.716-40.858zm51.162 38.402c0.69878 0.57416 1.1127 0 1.1127 0 0.5252-0.73883 1.0548-1.4688 1.6201-2.1809 0 0 0.59195-0.63647 0.0579-1.1839l-47.646-44.633c-0.82341-0.82339-1.2952 0.15578-1.2952 0.15578-0.76999 0.99698-1.58 2.0919-2.2877 3.1512 0 0-0.76109 0.89906 0 1.6468l48.438 43.039zm4.4775-5.4923c0.58751 0.57861 1.313-0.16913 1.313-0.16913 0.32046-0.32936 0.66762-0.64981 0.97918-0.98363 0.2982-0.25814 0.52074-0.46288 0.79224-0.72993 0 0 0.76999-0.35606 0.13353-1.1572l-44.659-47.299c-0.84566-0.99698-1.5133-0.37832-1.5133-0.37832a64.911 64.911 0 0 0-2.9909 2.9197s-1.0059 0.55635-0.11127 1.4465zm5.6169-4.709c0.43618 0.44063 0.94802 0 0.94802 0 0.72549-0.52521 1.4688-1.046 2.221-1.5133 0 0 0.69877-0.30265 0.2982-0.98362l-41.726-49.943c-0.78779-1.037-1.5578-0.39168-1.5578-0.39168-0.98363 0.64092-2.2922 1.5578-3.2446 2.2521 0 0-0.97473 0.66762-0.23144 1.5756l43.293 48.999zm6.1065-3.8144c0.41393 0.53409 1.1439 0 1.1439 0 0.77445-0.39613 1.58-0.76554 2.3945-1.1127 0 0 0.70323-0.2982 0.38722-0.90796l-38.028-51.75c-0.84567-1.3486-1.7091-0.69433-1.7091-0.69433-1.2907 0.56971-2.3011 1.0281-3.5428 1.6691 0 0-1.1394 0.44508-0.46733 1.5177zm20.937-8.4476 1.3174 2.5236c0.40503 0.62312 1.2195 0.61867 1.2195 0.61867 1.135-0.0534 2.1542-0.0579 3.3248-0.0534 0 0 0.97472-0.0267 0.5786-1.0326l-2.0785-4.4197-23.264-49.498c-0.75665-1.3575-1.6557-1.1394-1.6557-1.1394-1.4821-0.0134-2.9197 0.0223-4.3573 0.0668 0 0-1.5489-0.0668-0.93467 1.2596zm-98.448 26.153 49.36 24.613 3.307 1.6201c0.99698 0.45843 1.0816-0.5341 1.0816-0.5341 0.0445-1.2195 0.089-2.3589 0.16022-3.4004 0 0 0.0757-0.71658-0.84565-1.2729l-0.8145-0.44953-51.905-27.76c-0.84566-0.48514-0.95693 0.5786-0.95693 0.5786-0.089 1.6468-0.18248 3.7075-0.21809 5.3766 0 0-0.13352 0.79224 0.8323 1.2284m91.513-23.015c0.24925 0.35607 0.68098 0.66317 0.68098 0.66317s0.46733 0.18249 1.1839 0.0579a34.85 34.85 0 0 1 2.6037-0.36051s0.93467-0.0979 0.66762-0.72104l-0.72103-1.313-29.108-52.8c-0.54745-1.0905-1.905-0.90353-1.905-0.90353a101.35 101.35 0 0 0-4.1036 0.59196s-1.2106 0.32047-0.35607 1.9673c0 0 30.826 52.435 31.058 52.818m190.23 104.85c1.9984 0.089 1.3397-1.4376 1.3397-1.4376a188.22 188.22 0 0 0-2.1898-4.9983l-0.25815-0.53409c-0.59641-1.3041-1.1082-1.175-1.1082-1.175l-27.528-0.316-2.2788 6.7029 30.444 1.678zm5.7104 15.022c1.8604 0.29821 1.4999-0.97918 1.4999-0.97918-0.61422-1.8382-1.2596-3.6497-1.9361-5.4923 0 0-0.44953-1.4866-1.5622-1.5711l-5.1184-0.54745-32.037-3.979-1.9762 5.8261 33.884 5.6036zm4.3396 14.839c1.6913 0.43172 1.4821-0.92132 1.4821-0.92132a210.32 210.32 0 0 0-1.3842-5.2342s-0.12462-1.0326-1.2151-1.4376l-10.882-2.5993-34.703-7.7311-1.7892 5.2698 35.713 9.2443 12.774 3.4093zm5.0383 35.095-24.208-12.284-27.911-14.011c-1.264-0.55635-1.264 0.41393-1.264 0.41393-0.0134 1.126-0.0623 2.3233-0.14243 3.4138 0 0-0.0312 1.0326 0.96583 1.4866l26.34 14.056 25.103 13.53c1.5489 0.89906 1.8115-0.31156 1.8115-0.31156 0.0979-1.54 0.17803-3.0755 0.18693-4.6466 0 0 0.0935-1.1127-0.88127-1.6468m-1.402 12.658-26.433-15.774-24.537-14.559c-1.5177-0.8234-1.6068 0.26705-1.6068 0.26705-0.12462 0.93467-0.26705 1.8693-0.44508 2.7729 0 0-0.20474 1.0014 0.66763 1.5756l23.629 14.915 27.559 17.416c1.4154 0.91242 1.6424-0.12462 1.6424-0.12462 0.28931-1.5533 0.543-3.0043 0.7878-4.611 0 0 0.38722-0.89461-1.264-1.8782m-1.8738 12.525-28.637-19.833-22.196-15.182c-1.224-0.79669-1.4242 0.11573-1.4242 0.11573-0.32491 1.2729-0.65427 2.2744-0.80115 2.7061 0 0-0.39167 0.86791 0.70768 1.6246l21.15 15.378 28.726 20.946c1.2729 0.95247 1.6913 0 1.6913 0 0.47624-1.362 0.91687-2.7595 1.3219-4.1571 0 0 0.40058-0.95247-0.53854-1.5978m-4.0992 10.994-29.033-22.948-20.095-15.872c-1.0904-0.89906-1.5222 0.0712-1.5222 0.0712-0.37386 0.8145-0.81895 1.7803-1.2329 2.5726 0 0-0.47624 0.70323 0.46733 1.4287l19.57 16.143 29.019 24.101c0.94357 0.77444 1.4777 0.11127 1.4777 0.11127 0.67208-1.2996 1.3041-2.6126 1.9361-3.9612 0 0 0.42282-0.84565-0.58751-1.6468m-33.906-15.618-18.84-16.74c-0.95247-0.77444-1.3798 0-1.3798 0-0.47178 0.75664-1.037 1.5578-1.5622 2.261 0 0-0.47624 0.75664 0.26706 1.3308l18.409 17.305 28.209 26.469c0.99698 0.93467 1.6735-0.26705 1.6735-0.26705 0.73883-0.99253 1.4465-2.0207 2.1141-3.0444 0 0 0.63202-0.68542-0.30265-1.6067zm-5.3855 7.0189-17.803-18.093c-0.69432-0.77444-1.2729-0.18693-1.2729-0.18693-0.66762 0.71213-1.1928 1.2685-1.9272 1.9584 0 0-0.73438 0.60086 0 1.3842l17.652 18.827 26.5 28.049c0.8056 0.81895 1.6646-0.32936 1.6646-0.32936 0.8323-0.8056 1.6602-1.6023 2.4435-2.4658 0 0 0.89016-0.62311-0.0801-1.5889l-27.177-27.559zm-5.7905 6.5427-17.225-19.655c-0.65872-0.84121-1.2818-0.33381-1.2818-0.33381-0.72548 0.5786-1.4955 1.1572-2.2521 1.6646 0 0-0.71213 0.38722-0.0222 1.3085l17.149 20.719 23.5 28.218c0.97028 1.1216 1.7848 0.33381 1.7848 0.33381 1.0593-0.71213 2.0963-1.4554 3.1156-2.2298 0 0 0.93022-0.49404 0.0178-1.58l-24.787-28.441zm-6.3335 6.2623-16.793-21.925c-0.52519-0.85455-1.2774-0.42282-1.2774-0.42282-0.76554 0.43172-1.718 0.96582-2.5147 1.3219 0 0-0.83231 0.2893-0.2448 1.2507l16.869 23.26 20.318 27.675c0.60531 0.92577 1.5578 0.40948 1.5578 0.40948 1.2373-0.57861 2.4568-1.1394 3.6497-1.7803 0 0 1.0637-0.32491 0.14243-1.54zm-6.9522 5.9151-16.668-24.689c-0.59195-0.95248-1.3976-0.51629-1.3976-0.51629-1.0237 0.37387-1.5889 0.51629-2.6304 0.83675 0 0-1.1305 0.22254-0.38722 1.3886l16.753 26.269 16.317 25.476c0.63201 1.2729 1.6468 0.94803 1.6468 0.94803 1.3041-0.36051 2.5815-0.74329 3.8455-1.1572 0 0 1.5355-0.2804 0.62756-1.6201zm-7.6465 5.6125-16.321-28.147c-0.5341-1.0816-1.5133-0.69433-1.5133-0.69433-0.96137 0.17803-1.9183 0.33826-2.893 0.49849 0 0-0.95247 0.23589-0.32936 1.3976l16.29 29.981 12.413 22.583c0.67652 1.1305 1.4243 0.93467 1.4243 0.93467 1.8382-0.2982 3.0978-0.46734 4.6333-0.72993 0 0 1.1973-0.2359 0.47624-1.4243zm-8.4966 5.2564-15.867-32.162c-0.46289-1.0459-1.2774-0.96582-1.2774-0.96582-1.0816 0.0757-2.2388 0.11127-3.3515 0.13352 0 0-1.0682-0.0534-0.5341 1.1884l15.858 34.556 8.1672 17.932c0.75664 1.5934 1.58 1.4554 1.58 1.4554 1.6512 0 3.4271-0.0579 5.0294-0.15578 0 0 1.2195 0.0668 0.40059-1.6468zm-9.5203 4.7713-14.924-36.644c-0.59641-1.3219-1.491-1.2907-1.491-1.2907-1.135-0.0445-2.4034-0.14688-3.5607-0.26705 0 0-1.0726-0.19138-0.51184 1.2284l14.665 39.416 4.7268 12.676c0.58751 1.4688 1.5889 1.491 1.5889 1.491 1.6691 0.17804 3.436 0.34272 5.0472 0.46289 0 0 1.3976 0.13352 0.80114-1.4109l-6.3424-15.658zm-10.66 4.1882-13.281-41.855c-0.33826-1.2507-1.2507-1.2729-1.2507-1.2729-1.2551-0.20474-2.4925-0.44508-3.7654-0.68988 0 0-1.2551-0.37832-0.72993 1.135l12.529 44.673 1.7803 6.1866c0.47623 1.7492 1.5711 1.9317 1.5711 1.9317 1.7759 0.37832 3.5562 0.71213 5.3009 1.0059 0 0 1.4376 0.40057 0.83231-1.5667l-2.982-9.547zm-12.044 3.3559-10.495-46.747c-0.43618-1.6735-1.264-1.7447-1.264-1.7447-1.2996-0.35606-2.6171-0.72548-3.9523-1.126 0 0-1.1216-0.50739-0.83675 1.2195l9.409 49.751s0.0712 1.2017 1.4198 1.6023c1.7714 0.53855 3.5162 1.0593 5.2787 1.5311 0 0 1.5978 0.47179 1.175-1.1572z"/>
 </g>
</svg>
