<?xml version="1.0" encoding="UTF-8" standalone="no"?>
<!-- Created with Inkscape (http://www.inkscape.org/) -->

<svg
   xmlns:dc="http://purl.org/dc/elements/1.1/"
   xmlns:cc="http://creativecommons.org/ns#"
   xmlns:rdf="http://www.w3.org/1999/02/22-rdf-syntax-ns#"
   xmlns:svg="http://www.w3.org/2000/svg"
   xmlns="http://www.w3.org/2000/svg"
   xmlns:sodipodi="http://sodipodi.sourceforge.net/DTD/sodipodi-0.dtd"
   xmlns:inkscape="http://www.inkscape.org/namespaces/inkscape"
   id="svg2"
   version="1.1"
   inkscape:version="0.91 r13725"
   xml:space="preserve"
   width="31.4025"
   height="31.313749"
   viewBox="0 0 31.4025 31.313749"
   sodipodi:docname="Metro_Minnesota_logo.svg"><metadata
     id="metadata8"><rdf:RDF><cc:Work
         rdf:about=""><dc:format>image/svg+xml</dc:format><dc:type
           rdf:resource="http://purl.org/dc/dcmitype/StillImage" /><dc:title></dc:title></cc:Work></rdf:RDF></metadata><defs
     id="defs6"><clipPath
       clipPathUnits="userSpaceOnUse"
       id="clipPath64"><path
         d="m 25.124,1550.664 148.977,0 0,34.056 -148.977,0 0,-34.056 z"
         id="path66"
         inkscape:connector-curvature="0" /></clipPath><clipPath
       clipPathUnits="userSpaceOnUse"
       id="clipPath122"><path
         d="m 0,0 1512,0 0,1620 L 0,1620 0,0 Z"
         id="path124"
         inkscape:connector-curvature="0" /></clipPath><clipPath
       clipPathUnits="userSpaceOnUse"
       id="clipPath148"><path
         d="m 170.1,1411.236 44.1,0 0,36 -44.1,0 0,-36 z"
         id="path150"
         inkscape:connector-curvature="0" /></clipPath><clipPath
       clipPathUnits="userSpaceOnUse"
       id="clipPath216"><path
         d="m 0,0 1512,0 0,1620 L 0,1620 0,0 Z"
         id="path218"
         inkscape:connector-curvature="0" /></clipPath><clipPath
       clipPathUnits="userSpaceOnUse"
       id="clipPath332"><path
         d="m 1417.147,323.416 -5.785,-41.868 c 0,0 -0.646,-4.679 3.954,-5.337 l 0,0 70.326,-10.052 c 0,0 4.6,-0.658 5.247,4.021 l 0,0 5.785,41.868 c 0,0 0.646,4.679 -3.954,5.336 l 0,0 -70.326,10.053 c 0,0 -0.221,0.032 -0.574,0.032 l 0,0 c -1.255,0 -4.168,-0.401 -4.673,-4.053"
         id="path334"
         inkscape:connector-curvature="0" /></clipPath><clipPath
       clipPathUnits="userSpaceOnUse"
       id="clipPath346"><path
         d="m 0,0 1512,0 0,1620 L 0,1620 0,0 Z"
         id="path348"
         inkscape:connector-curvature="0" /></clipPath><clipPath
       clipPathUnits="userSpaceOnUse"
       id="clipPath358"><path
         d="m 227.52,922.004 639.36,0 0,679.24 -639.36,0 0,-679.24 z"
         id="path360"
         inkscape:connector-curvature="0" /></clipPath><clipPath
       clipPathUnits="userSpaceOnUse"
       id="clipPath480"><path
         d="m 227.52,922.004 639.36,0 0,679.24 -639.36,0 0,-679.24 z"
         id="path482"
         inkscape:connector-curvature="0" /></clipPath><clipPath
       clipPathUnits="userSpaceOnUse"
       id="clipPath502"><path
         d="m 227.52,922.004 639.36,0 0,679.24 -639.36,0 0,-679.24 z"
         id="path504"
         inkscape:connector-curvature="0" /></clipPath><clipPath
       clipPathUnits="userSpaceOnUse"
       id="clipPath574"><path
         d="m 227.52,922.004 639.36,0 0,679.24 -639.36,0 0,-679.24 z"
         id="path576"
         inkscape:connector-curvature="0" /></clipPath><clipPath
       clipPathUnits="userSpaceOnUse"
       id="clipPath590"><path
         d="m 227.52,922.004 639.36,0 0,679.24 -639.36,0 0,-679.24 z"
         id="path592"
         inkscape:connector-curvature="0" /></clipPath><clipPath
       clipPathUnits="userSpaceOnUse"
       id="clipPath706"><path
         d="m 227.52,922.004 639.36,0 0,679.24 -639.36,0 0,-679.24 z"
         id="path708"
         inkscape:connector-curvature="0" /></clipPath><clipPath
       clipPathUnits="userSpaceOnUse"
       id="clipPath738"><path
         d="m 227.52,922.004 639.36,0 0,679.24 -639.36,0 0,-679.24 z"
         id="path740"
         inkscape:connector-curvature="0" /></clipPath><clipPath
       clipPathUnits="userSpaceOnUse"
       id="clipPath770"><path
         d="m 227.52,922.004 639.36,0 0,679.24 -639.36,0 0,-679.24 z"
         id="path772"
         inkscape:connector-curvature="0" /></clipPath><clipPath
       clipPathUnits="userSpaceOnUse"
       id="clipPath802"><path
         d="m 227.52,922.004 639.36,0 0,679.24 -639.36,0 0,-679.24 z"
         id="path804"
         inkscape:connector-curvature="0" /></clipPath><clipPath
       clipPathUnits="userSpaceOnUse"
       id="clipPath834"><path
         d="m 227.52,922.004 639.36,0 0,679.24 -639.36,0 0,-679.24 z"
         id="path836"
         inkscape:connector-curvature="0" /></clipPath><clipPath
       clipPathUnits="userSpaceOnUse"
       id="clipPath846"><path
         d="m 241.339,922.004 595.688,0 0,671.292 -595.688,0 0,-671.292 z"
         id="path848"
         inkscape:connector-curvature="0" /></clipPath><clipPath
       clipPathUnits="userSpaceOnUse"
       id="clipPath862"><path
         d="m 227.52,922.004 639.36,0 0,679.24 -639.36,0 0,-679.24 z"
         id="path864"
         inkscape:connector-curvature="0" /></clipPath><clipPath
       clipPathUnits="userSpaceOnUse"
       id="clipPath882"><path
         d="m 227.52,922.004 639.36,0 0,679.24 -639.36,0 0,-679.24 z"
         id="path884"
         inkscape:connector-curvature="0" /></clipPath><clipPath
       clipPathUnits="userSpaceOnUse"
       id="clipPath910"><path
         d="m 227.52,922.004 639.36,0 0,679.24 -639.36,0 0,-679.24 z"
         id="path912"
         inkscape:connector-curvature="0" /></clipPath><clipPath
       clipPathUnits="userSpaceOnUse"
       id="clipPath938"><path
         d="m 227.52,922.004 639.36,0 0,679.24 -639.36,0 0,-679.24 z"
         id="path940"
         inkscape:connector-curvature="0" /></clipPath><clipPath
       clipPathUnits="userSpaceOnUse"
       id="clipPath1032"><path
         d="m 227.52,922.004 639.36,0 0,679.24 -639.36,0 0,-679.24 z"
         id="path1034"
         inkscape:connector-curvature="0" /></clipPath><clipPath
       clipPathUnits="userSpaceOnUse"
       id="clipPath1056"><path
         d="m 227.52,922.004 639.36,0 0,679.24 -639.36,0 0,-679.24 z"
         id="path1058"
         inkscape:connector-curvature="0" /></clipPath><clipPath
       clipPathUnits="userSpaceOnUse"
       id="clipPath1072"><path
         d="m 227.52,922.004 639.36,0 0,679.24 -639.36,0 0,-679.24 z"
         id="path1074"
         inkscape:connector-curvature="0" /></clipPath><clipPath
       clipPathUnits="userSpaceOnUse"
       id="clipPath1088"><path
         d="m 227.52,922.004 639.36,0 0,679.24 -639.36,0 0,-679.24 z"
         id="path1090"
         inkscape:connector-curvature="0" /></clipPath><clipPath
       clipPathUnits="userSpaceOnUse"
       id="clipPath1104"><path
         d="m 227.52,922.004 639.36,0 0,679.24 -639.36,0 0,-679.24 z"
         id="path1106"
         inkscape:connector-curvature="0" /></clipPath><clipPath
       clipPathUnits="userSpaceOnUse"
       id="clipPath1124"><path
         d="m 227.52,922.004 639.36,0 0,679.24 -639.36,0 0,-679.24 z"
         id="path1126"
         inkscape:connector-curvature="0" /></clipPath><clipPath
       clipPathUnits="userSpaceOnUse"
       id="clipPath1140"><path
         d="m 227.52,922.004 639.36,0 0,679.24 -639.36,0 0,-679.24 z"
         id="path1142"
         inkscape:connector-curvature="0" /></clipPath><clipPath
       clipPathUnits="userSpaceOnUse"
       id="clipPath1156"><path
         d="m 227.52,922.004 639.36,0 0,679.24 -639.36,0 0,-679.24 z"
         id="path1158"
         inkscape:connector-curvature="0" /></clipPath><clipPath
       clipPathUnits="userSpaceOnUse"
       id="clipPath1172"><path
         d="m 227.52,922.004 639.36,0 0,679.24 -639.36,0 0,-679.24 z"
         id="path1174"
         inkscape:connector-curvature="0" /></clipPath><clipPath
       clipPathUnits="userSpaceOnUse"
       id="clipPath1188"><path
         d="m 227.52,922.004 639.36,0 0,679.24 -639.36,0 0,-679.24 z"
         id="path1190"
         inkscape:connector-curvature="0" /></clipPath><clipPath
       clipPathUnits="userSpaceOnUse"
       id="clipPath1204"><path
         d="m 227.52,922.004 639.36,0 0,679.24 -639.36,0 0,-679.24 z"
         id="path1206"
         inkscape:connector-curvature="0" /></clipPath><clipPath
       clipPathUnits="userSpaceOnUse"
       id="clipPath1224"><path
         d="m 227.52,922.004 639.36,0 0,679.24 -639.36,0 0,-679.24 z"
         id="path1226"
         inkscape:connector-curvature="0" /></clipPath><clipPath
       clipPathUnits="userSpaceOnUse"
       id="clipPath1240"><path
         d="m 227.52,922.004 639.36,0 0,679.24 -639.36,0 0,-679.24 z"
         id="path1242"
         inkscape:connector-curvature="0" /></clipPath><clipPath
       clipPathUnits="userSpaceOnUse"
       id="clipPath1260"><path
         d="m 227.52,922.004 639.36,0 0,679.24 -639.36,0 0,-679.24 z"
         id="path1262"
         inkscape:connector-curvature="0" /></clipPath><clipPath
       clipPathUnits="userSpaceOnUse"
       id="clipPath1276"><path
         d="m 227.52,922.004 639.36,0 0,679.24 -639.36,0 0,-679.24 z"
         id="path1278"
         inkscape:connector-curvature="0" /></clipPath><clipPath
       clipPathUnits="userSpaceOnUse"
       id="clipPath1292"><path
         d="m 227.52,922.004 639.36,0 0,679.24 -639.36,0 0,-679.24 z"
         id="path1294"
         inkscape:connector-curvature="0" /></clipPath><clipPath
       clipPathUnits="userSpaceOnUse"
       id="clipPath1308"><path
         d="m 227.52,922.004 639.36,0 0,679.24 -639.36,0 0,-679.24 z"
         id="path1310"
         inkscape:connector-curvature="0" /></clipPath><clipPath
       clipPathUnits="userSpaceOnUse"
       id="clipPath1324"><path
         d="m 227.52,922.004 639.36,0 0,679.24 -639.36,0 0,-679.24 z"
         id="path1326"
         inkscape:connector-curvature="0" /></clipPath><clipPath
       clipPathUnits="userSpaceOnUse"
       id="clipPath1340"><path
         d="m 227.52,922.004 639.36,0 0,679.24 -639.36,0 0,-679.24 z"
         id="path1342"
         inkscape:connector-curvature="0" /></clipPath><clipPath
       clipPathUnits="userSpaceOnUse"
       id="clipPath1356"><path
         d="m 227.52,922.004 639.36,0 0,679.24 -639.36,0 0,-679.24 z"
         id="path1358"
         inkscape:connector-curvature="0" /></clipPath><clipPath
       clipPathUnits="userSpaceOnUse"
       id="clipPath1372"><path
         d="m 227.52,922.004 639.36,0 0,679.24 -639.36,0 0,-679.24 z"
         id="path1374"
         inkscape:connector-curvature="0" /></clipPath><clipPath
       clipPathUnits="userSpaceOnUse"
       id="clipPath1388"><path
         d="m 227.52,922.004 639.36,0 0,679.24 -639.36,0 0,-679.24 z"
         id="path1390"
         inkscape:connector-curvature="0" /></clipPath><clipPath
       clipPathUnits="userSpaceOnUse"
       id="clipPath1404"><path
         d="m 227.52,922.004 639.36,0 0,679.24 -639.36,0 0,-679.24 z"
         id="path1406"
         inkscape:connector-curvature="0" /></clipPath><clipPath
       clipPathUnits="userSpaceOnUse"
       id="clipPath1420"><path
         d="m 227.52,922.004 639.36,0 0,679.24 -639.36,0 0,-679.24 z"
         id="path1422"
         inkscape:connector-curvature="0" /></clipPath><clipPath
       clipPathUnits="userSpaceOnUse"
       id="clipPath1436"><path
         d="m 227.52,922.004 639.36,0 0,679.24 -639.36,0 0,-679.24 z"
         id="path1438"
         inkscape:connector-curvature="0" /></clipPath><clipPath
       clipPathUnits="userSpaceOnUse"
       id="clipPath1464"><path
         d="m 227.52,922.004 639.36,0 0,679.24 -639.36,0 0,-679.24 z"
         id="path1466"
         inkscape:connector-curvature="0" /></clipPath><clipPath
       clipPathUnits="userSpaceOnUse"
       id="clipPath1490"><path
         d="m 227.52,922.004 639.36,0 0,679.24 -639.36,0 0,-679.24 z"
         id="path1492"
         inkscape:connector-curvature="0" /></clipPath><clipPath
       clipPathUnits="userSpaceOnUse"
       id="clipPath1536"><path
         d="m 241.339,922.004 595.688,0 0,671.292 -595.688,0 0,-671.292 z"
         id="path1538"
         inkscape:connector-curvature="0" /></clipPath><clipPath
       clipPathUnits="userSpaceOnUse"
       id="clipPath1552"><path
         d="m 227.52,922.004 639.36,0 0,679.24 -639.36,0 0,-679.24 z"
         id="path1554"
         inkscape:connector-curvature="0" /></clipPath><clipPath
       clipPathUnits="userSpaceOnUse"
       id="clipPath1572"><path
         d="m 241.339,922.004 595.688,0 0,671.292 -595.688,0 0,-671.292 z"
         id="path1574"
         inkscape:connector-curvature="0" /></clipPath><clipPath
       clipPathUnits="userSpaceOnUse"
       id="clipPath1660"><path
         d="m 241.339,922.004 595.688,0 0,671.292 -595.688,0 0,-671.292 z"
         id="path1662"
         inkscape:connector-curvature="0" /></clipPath><clipPath
       clipPathUnits="userSpaceOnUse"
       id="clipPath1748"><path
         d="m 241.339,922.004 595.688,0 0,671.292 -595.688,0 0,-671.292 z"
         id="path1750"
         inkscape:connector-curvature="0" /></clipPath><clipPath
       clipPathUnits="userSpaceOnUse"
       id="clipPath1812"><path
         d="m 241.339,922.004 595.688,0 0,671.292 -595.688,0 0,-671.292 z"
         id="path1814"
         inkscape:connector-curvature="0" /></clipPath><clipPath
       clipPathUnits="userSpaceOnUse"
       id="clipPath1876"><path
         d="m 241.339,922.004 595.688,0 0,671.292 -595.688,0 0,-671.292 z"
         id="path1878"
         inkscape:connector-curvature="0" /></clipPath><clipPath
       clipPathUnits="userSpaceOnUse"
       id="clipPath1972"><path
         d="m 241.339,922.004 595.688,0 0,671.292 -595.688,0 0,-671.292 z"
         id="path1974"
         inkscape:connector-curvature="0" /></clipPath><clipPath
       clipPathUnits="userSpaceOnUse"
       id="clipPath2056"><path
         d="m 241.339,922.004 595.688,0 0,671.292 -595.688,0 0,-671.292 z"
         id="path2058"
         inkscape:connector-curvature="0" /></clipPath><clipPath
       clipPathUnits="userSpaceOnUse"
       id="clipPath2156"><path
         d="m 241.339,922.004 595.688,0 0,671.292 -595.688,0 0,-671.292 z"
         id="path2158"
         inkscape:connector-curvature="0" /></clipPath><clipPath
       clipPathUnits="userSpaceOnUse"
       id="clipPath2276"><path
         d="m 241.339,922.004 595.688,0 0,671.292 -595.688,0 0,-671.292 z"
         id="path2278"
         inkscape:connector-curvature="0" /></clipPath><clipPath
       clipPathUnits="userSpaceOnUse"
       id="clipPath2398"><path
         d="m 241.339,922.004 595.688,0 0,671.292 -595.688,0 0,-671.292 z"
         id="path2400"
         inkscape:connector-curvature="0" /></clipPath><clipPath
       clipPathUnits="userSpaceOnUse"
       id="clipPath2518"><path
         d="m 241.339,922.004 595.688,0 0,671.292 -595.688,0 0,-671.292 z"
         id="path2520"
         inkscape:connector-curvature="0" /></clipPath><clipPath
       clipPathUnits="userSpaceOnUse"
       id="clipPath2634"><path
         d="m 241.339,922.004 595.688,0 0,671.292 -595.688,0 0,-671.292 z"
         id="path2636"
         inkscape:connector-curvature="0" /></clipPath><clipPath
       clipPathUnits="userSpaceOnUse"
       id="clipPath2754"><path
         d="m 241.339,922.004 595.688,0 0,671.292 -595.688,0 0,-671.292 z"
         id="path2756"
         inkscape:connector-curvature="0" /></clipPath><clipPath
       clipPathUnits="userSpaceOnUse"
       id="clipPath2866"><path
         d="m 241.339,922.004 595.688,0 0,671.292 -595.688,0 0,-671.292 z"
         id="path2868"
         inkscape:connector-curvature="0" /></clipPath><clipPath
       clipPathUnits="userSpaceOnUse"
       id="clipPath2934"><path
         d="m 227.52,922.004 639.36,0 0,679.24 -639.36,0 0,-679.24 z"
         id="path2936"
         inkscape:connector-curvature="0" /></clipPath><clipPath
       clipPathUnits="userSpaceOnUse"
       id="clipPath2952"><path
         d="m 227.52,922.004 639.36,0 0,679.24 -639.36,0 0,-679.24 z"
         id="path2954"
         inkscape:connector-curvature="0" /></clipPath><clipPath
       clipPathUnits="userSpaceOnUse"
       id="clipPath2970"><path
         d="m 227.52,922.004 639.36,0 0,679.24 -639.36,0 0,-679.24 z"
         id="path2972"
         inkscape:connector-curvature="0" /></clipPath><clipPath
       clipPathUnits="userSpaceOnUse"
       id="clipPath2988"><path
         d="m 227.52,922.004 639.36,0 0,679.24 -639.36,0 0,-679.24 z"
         id="path2990"
         inkscape:connector-curvature="0" /></clipPath><clipPath
       clipPathUnits="userSpaceOnUse"
       id="clipPath3006"><path
         d="m 227.52,922.004 639.36,0 0,679.24 -639.36,0 0,-679.24 z"
         id="path3008"
         inkscape:connector-curvature="0" /></clipPath><clipPath
       clipPathUnits="userSpaceOnUse"
       id="clipPath3024"><path
         d="m 227.52,922.004 639.36,0 0,679.24 -639.36,0 0,-679.24 z"
         id="path3026"
         inkscape:connector-curvature="0" /></clipPath><clipPath
       clipPathUnits="userSpaceOnUse"
       id="clipPath3042"><path
         d="m 227.52,922.004 639.36,0 0,679.24 -639.36,0 0,-679.24 z"
         id="path3044"
         inkscape:connector-curvature="0" /></clipPath><clipPath
       clipPathUnits="userSpaceOnUse"
       id="clipPath3060"><path
         d="m 227.52,922.004 639.36,0 0,679.24 -639.36,0 0,-679.24 z"
         id="path3062"
         inkscape:connector-curvature="0" /></clipPath><clipPath
       clipPathUnits="userSpaceOnUse"
       id="clipPath3078"><path
         d="m 227.52,922.004 639.36,0 0,679.24 -639.36,0 0,-679.24 z"
         id="path3080"
         inkscape:connector-curvature="0" /></clipPath><clipPath
       clipPathUnits="userSpaceOnUse"
       id="clipPath3096"><path
         d="m 227.52,922.004 639.36,0 0,679.24 -639.36,0 0,-679.24 z"
         id="path3098"
         inkscape:connector-curvature="0" /></clipPath><clipPath
       clipPathUnits="userSpaceOnUse"
       id="clipPath3114"><path
         d="m 227.52,922.004 639.36,0 0,679.24 -639.36,0 0,-679.24 z"
         id="path3116"
         inkscape:connector-curvature="0" /></clipPath><clipPath
       clipPathUnits="userSpaceOnUse"
       id="clipPath3132"><path
         d="m 227.52,922.004 639.36,0 0,679.24 -639.36,0 0,-679.24 z"
         id="path3134"
         inkscape:connector-curvature="0" /></clipPath><clipPath
       clipPathUnits="userSpaceOnUse"
       id="clipPath3150"><path
         d="m 227.52,922.004 639.36,0 0,679.24 -639.36,0 0,-679.24 z"
         id="path3152"
         inkscape:connector-curvature="0" /></clipPath><clipPath
       clipPathUnits="userSpaceOnUse"
       id="clipPath3168"><path
         d="m 227.52,922.004 639.36,0 0,679.24 -639.36,0 0,-679.24 z"
         id="path3170"
         inkscape:connector-curvature="0" /></clipPath><clipPath
       clipPathUnits="userSpaceOnUse"
       id="clipPath3186"><path
         d="m 227.52,922.004 639.36,0 0,679.24 -639.36,0 0,-679.24 z"
         id="path3188"
         inkscape:connector-curvature="0" /></clipPath><clipPath
       clipPathUnits="userSpaceOnUse"
       id="clipPath3204"><path
         d="m 227.52,922.004 639.36,0 0,679.24 -639.36,0 0,-679.24 z"
         id="path3206"
         inkscape:connector-curvature="0" /></clipPath><clipPath
       clipPathUnits="userSpaceOnUse"
       id="clipPath3222"><path
         d="m 227.52,922.004 639.36,0 0,679.24 -639.36,0 0,-679.24 z"
         id="path3224"
         inkscape:connector-curvature="0" /></clipPath><clipPath
       clipPathUnits="userSpaceOnUse"
       id="clipPath3240"><path
         d="m 227.52,922.004 639.36,0 0,679.24 -639.36,0 0,-679.24 z"
         id="path3242"
         inkscape:connector-curvature="0" /></clipPath><clipPath
       clipPathUnits="userSpaceOnUse"
       id="clipPath3258"><path
         d="m 227.52,922.004 639.36,0 0,679.24 -639.36,0 0,-679.24 z"
         id="path3260"
         inkscape:connector-curvature="0" /></clipPath><clipPath
       clipPathUnits="userSpaceOnUse"
       id="clipPath3276"><path
         d="m 227.52,922.004 639.36,0 0,679.24 -639.36,0 0,-679.24 z"
         id="path3278"
         inkscape:connector-curvature="0" /></clipPath><clipPath
       clipPathUnits="userSpaceOnUse"
       id="clipPath5230"><path
         d="m 241.339,922.004 595.688,0 0,671.292 -595.688,0 0,-671.292 z"
         id="path5232"
         inkscape:connector-curvature="0" /></clipPath><clipPath
       clipPathUnits="userSpaceOnUse"
       id="clipPath5320"><path
         d="m 227.52,922.004 639.36,0 0,679.24 -639.36,0 0,-679.24 z"
         id="path5322"
         inkscape:connector-curvature="0" /></clipPath><clipPath
       clipPathUnits="userSpaceOnUse"
       id="clipPath5384"><path
         d="m 241.339,922.004 595.688,0 0,671.292 -595.688,0 0,-671.292 z"
         id="path5386"
         inkscape:connector-curvature="0" /></clipPath><clipPath
       clipPathUnits="userSpaceOnUse"
       id="clipPath5416"><path
         d="m 241.339,922.004 595.688,0 0,671.292 -595.688,0 0,-671.292 z"
         id="path5418"
         inkscape:connector-curvature="0" /></clipPath><clipPath
       clipPathUnits="userSpaceOnUse"
       id="clipPath5484"><path
         d="m 241.339,922.004 595.688,0 0,671.292 -595.688,0 0,-671.292 z"
         id="path5486"
         inkscape:connector-curvature="0" /></clipPath><clipPath
       clipPathUnits="userSpaceOnUse"
       id="clipPath5516"><path
         d="m 241.339,922.004 595.688,0 0,671.292 -595.688,0 0,-671.292 z"
         id="path5518"
         inkscape:connector-curvature="0" /></clipPath><clipPath
       clipPathUnits="userSpaceOnUse"
       id="clipPath5574"><path
         d="m 227.52,922.004 639.36,0 0,679.24 -639.36,0 0,-679.24 z"
         id="path5576"
         inkscape:connector-curvature="0" /></clipPath><clipPath
       clipPathUnits="userSpaceOnUse"
       id="clipPath5592"><path
         d="m 241.339,922.004 595.688,0 0,671.292 -595.688,0 0,-671.292 z"
         id="path5594"
         inkscape:connector-curvature="0" /></clipPath><clipPath
       clipPathUnits="userSpaceOnUse"
       id="clipPath5680"><path
         d="m 241.339,922.004 595.688,0 0,671.292 -595.688,0 0,-671.292 z"
         id="path5682"
         inkscape:connector-curvature="0" /></clipPath><clipPath
       clipPathUnits="userSpaceOnUse"
       id="clipPath5768"><path
         d="m 241.339,922.004 595.688,0 0,671.292 -595.688,0 0,-671.292 z"
         id="path5770"
         inkscape:connector-curvature="0" /></clipPath><clipPath
       clipPathUnits="userSpaceOnUse"
       id="clipPath5854"><path
         d="m 227.52,922.004 639.36,0 0,679.24 -639.36,0 0,-679.24 z"
         id="path5856"
         inkscape:connector-curvature="0" /></clipPath><clipPath
       clipPathUnits="userSpaceOnUse"
       id="clipPath5882"><path
         d="m 227.52,922.004 639.36,0 0,679.24 -639.36,0 0,-679.24 z"
         id="path5884"
         inkscape:connector-curvature="0" /></clipPath><clipPath
       clipPathUnits="userSpaceOnUse"
       id="clipPath5900"><path
         d="m 227.52,922.004 639.36,0 0,679.24 -639.36,0 0,-679.24 z"
         id="path5902"
         inkscape:connector-curvature="0" /></clipPath><clipPath
       clipPathUnits="userSpaceOnUse"
       id="clipPath5918"><path
         d="m 227.52,922.004 639.36,0 0,679.24 -639.36,0 0,-679.24 z"
         id="path5920"
         inkscape:connector-curvature="0" /></clipPath><clipPath
       clipPathUnits="userSpaceOnUse"
       id="clipPath5936"><path
         d="m 227.52,922.004 639.36,0 0,679.24 -639.36,0 0,-679.24 z"
         id="path5938"
         inkscape:connector-curvature="0" /></clipPath><clipPath
       clipPathUnits="userSpaceOnUse"
       id="clipPath5954"><path
         d="m 227.52,922.004 639.36,0 0,679.24 -639.36,0 0,-679.24 z"
         id="path5956"
         inkscape:connector-curvature="0" /></clipPath><clipPath
       clipPathUnits="userSpaceOnUse"
       id="clipPath5972"><path
         d="m 227.52,922.004 639.36,0 0,679.24 -639.36,0 0,-679.24 z"
         id="path5974"
         inkscape:connector-curvature="0" /></clipPath><clipPath
       clipPathUnits="userSpaceOnUse"
       id="clipPath6012"><path
         d="m 241.339,922.004 595.688,0 0,671.292 -595.688,0 0,-671.292 z"
         id="path6014"
         inkscape:connector-curvature="0" /></clipPath><clipPath
       clipPathUnits="userSpaceOnUse"
       id="clipPath6112"><path
         d="m 241.339,922.004 595.688,0 0,671.292 -595.688,0 0,-671.292 z"
         id="path6114"
         inkscape:connector-curvature="0" /></clipPath><clipPath
       clipPathUnits="userSpaceOnUse"
       id="clipPath6270"><path
         d="m 227.52,922.004 639.36,0 0,679.24 -639.36,0 0,-679.24 z"
         id="path6272"
         inkscape:connector-curvature="0" /></clipPath><clipPath
       clipPathUnits="userSpaceOnUse"
       id="clipPath6298"><path
         d="m 227.52,922.004 639.36,0 0,679.24 -639.36,0 0,-679.24 z"
         id="path6300"
         inkscape:connector-curvature="0" /></clipPath><clipPath
       clipPathUnits="userSpaceOnUse"
       id="clipPath6426"><path
         d="m 227.52,922.004 639.36,0 0,679.24 -639.36,0 0,-679.24 z"
         id="path6428"
         inkscape:connector-curvature="0" /></clipPath><clipPath
       clipPathUnits="userSpaceOnUse"
       id="clipPath6448"><path
         d="m 227.52,922.004 639.36,0 0,679.24 -639.36,0 0,-679.24 z"
         id="path6450"
         inkscape:connector-curvature="0" /></clipPath><clipPath
       clipPathUnits="userSpaceOnUse"
       id="clipPath6464"><path
         d="m 227.52,922.004 639.36,0 0,679.24 -639.36,0 0,-679.24 z"
         id="path6466"
         inkscape:connector-curvature="0" /></clipPath><clipPath
       clipPathUnits="userSpaceOnUse"
       id="clipPath6480"><path
         d="m 227.52,922.004 639.36,0 0,679.24 -639.36,0 0,-679.24 z"
         id="path6482"
         inkscape:connector-curvature="0" /></clipPath><clipPath
       clipPathUnits="userSpaceOnUse"
       id="clipPath6496"><path
         d="m 227.52,922.004 639.36,0 0,679.24 -639.36,0 0,-679.24 z"
         id="path6498"
         inkscape:connector-curvature="0" /></clipPath><clipPath
       clipPathUnits="userSpaceOnUse"
       id="clipPath6512"><path
         d="m 227.52,922.004 639.36,0 0,679.24 -639.36,0 0,-679.24 z"
         id="path6514"
         inkscape:connector-curvature="0" /></clipPath><clipPath
       clipPathUnits="userSpaceOnUse"
       id="clipPath6528"><path
         d="m 227.52,922.004 639.36,0 0,679.24 -639.36,0 0,-679.24 z"
         id="path6530"
         inkscape:connector-curvature="0" /></clipPath><clipPath
       clipPathUnits="userSpaceOnUse"
       id="clipPath6544"><path
         d="m 227.52,922.004 639.36,0 0,679.24 -639.36,0 0,-679.24 z"
         id="path6546"
         inkscape:connector-curvature="0" /></clipPath><clipPath
       clipPathUnits="userSpaceOnUse"
       id="clipPath6560"><path
         d="m 227.52,922.004 639.36,0 0,679.24 -639.36,0 0,-679.24 z"
         id="path6562"
         inkscape:connector-curvature="0" /></clipPath><clipPath
       clipPathUnits="userSpaceOnUse"
       id="clipPath6576"><path
         d="m 227.52,922.004 639.36,0 0,679.24 -639.36,0 0,-679.24 z"
         id="path6578"
         inkscape:connector-curvature="0" /></clipPath><clipPath
       clipPathUnits="userSpaceOnUse"
       id="clipPath6596"><path
         d="m 227.52,922.004 639.36,0 0,679.24 -639.36,0 0,-679.24 z"
         id="path6598"
         inkscape:connector-curvature="0" /></clipPath><clipPath
       clipPathUnits="userSpaceOnUse"
       id="clipPath6844"><path
         d="m 1103.281,1601.219 c 0,0 -4.5,0 -4.5,-4.5 l 0,0 0,-498.478 c 0,0 0,-4.5 4.5,-4.5 l 0,0 385.438,0 c 0,0 4.5,0 4.5,4.5 l 0,0 0,498.478 c 0,0 0,4.5 -4.5,4.5 l 0,0 -385.438,0 z"
         id="path6846"
         inkscape:connector-curvature="0" /></clipPath><clipPath
       clipPathUnits="userSpaceOnUse"
       id="clipPath7326"><path
         d="m 0,0 1512,0 0,1620 L 0,1620 0,0 Z"
         id="path7328"
         inkscape:connector-curvature="0" /></clipPath><clipPath
       clipPathUnits="userSpaceOnUse"
       id="clipPath9296"><path
         d="m 0,0 1512,0 0,1620 L 0,1620 0,0 Z"
         id="path9298"
         inkscape:connector-curvature="0" /></clipPath><clipPath
       clipPathUnits="userSpaceOnUse"
       id="clipPath9310"><path
         d="m 1319.017,870.12 71.213,0 0,65.88 -71.213,0 0,-65.88 z"
         id="path9312"
         inkscape:connector-curvature="0" /></clipPath><clipPath
       clipPathUnits="userSpaceOnUse"
       id="clipPath9382"><path
         d="m 1339.2,18 130.14,0 0,92.994 -130.14,0 0,-92.994 z"
         id="path9384"
         inkscape:connector-curvature="0" /></clipPath><clipPath
       clipPathUnits="userSpaceOnUse"
       id="clipPath9402"><path
         d="m 1457.585,71.892 -21.845,0 0,0 c -0.536,0 -1.058,-0.362 -1.459,-1.017 l 0,0 c -0.4,-0.652 -0.657,-1.579 -0.656,-2.606 l 0,0 0,-6.762 c -10e-4,-1.027 0.256,-1.954 0.656,-2.607 l 0,0 c 0.401,-0.655 0.923,-1.017 1.459,-1.017 l 0,0 0,0 21.845,0 0,0 c 0.534,0 1.057,0.362 1.458,1.017 l 0,0 c 0.401,0.653 0.658,1.58 0.657,2.607 l 0,0 0,6.762 c 10e-4,1.027 -0.256,1.954 -0.657,2.606 l 0,0 c -0.401,0.655 -0.924,1.017 -1.458,1.017 l 0,0 0,0 z"
         id="path9404"
         inkscape:connector-curvature="0" /></clipPath><clipPath
       clipPathUnits="userSpaceOnUse"
       id="clipPath9414"><path
         d="m 1435.74,72.133 c -1.302,0 -2.36,-1.73 -2.36,-3.864 l 0,0 0,-6.762 c 0,-2.135 1.058,-3.865 2.36,-3.865 l 0,0 21.845,0 c 1.303,0 2.363,1.73 2.363,3.865 l 0,0 0,6.762 c 0,2.134 -1.06,3.864 -2.363,3.864 l 0,0 -21.845,0 z M 1434.278,58.9 c -0.4,0.653 -0.657,1.58 -0.656,2.607 l 0,0 0,6.762 c -10e-4,1.027 0.256,1.954 0.656,2.606 l 0,0 c 0.401,0.655 0.923,1.017 1.459,1.017 l 0,0 0,0 21.845,0 0,0 c 0.534,0 1.057,-0.362 1.458,-1.017 l 0,0 c 0.401,-0.652 0.658,-1.579 0.657,-2.606 l 0,0 0,-6.762 c 0,-1.027 -0.256,-1.954 -0.657,-2.607 l 0,0 c -0.401,-0.655 -0.924,-1.017 -1.458,-1.017 l 0,0 0,0 -21.845,0 0,0 c -0.536,0 -1.058,0.362 -1.459,1.017"
         id="path9416"
         inkscape:connector-curvature="0" /></clipPath><clipPath
       clipPathUnits="userSpaceOnUse"
       id="clipPath9654"><path
         d="m 1339.2,18 130.14,0 0,92.994 -130.14,0 0,-92.994 z"
         id="path9656"
         inkscape:connector-curvature="0" /></clipPath><clipPath
       clipPathUnits="userSpaceOnUse"
       id="clipPath9832"><path
         d="m 259.2,1383.4 87.2,0 0,87.2 -87.2,0 0,-87.2 z"
         id="path9834"
         inkscape:connector-curvature="0" /></clipPath><clipPath
       clipPathUnits="userSpaceOnUse"
       id="clipPath9844"><path
         d="m 0,0 1512,0 0,1620 L 0,1620 0,0 Z"
         id="path9846"
         inkscape:connector-curvature="0" /></clipPath><clipPath
       clipPathUnits="userSpaceOnUse"
       id="clipPath9866"><path
         d="m 0,0 1512,0 0,1620 L 0,1620 0,0 Z"
         id="path9868"
         inkscape:connector-curvature="0" /></clipPath></defs><sodipodi:namedview
     pagecolor="#ffffff"
     bordercolor="#666666"
     borderopacity="1"
     objecttolerance="10"
     gridtolerance="10"
     guidetolerance="10"
     inkscape:pageopacity="0"
     inkscape:pageshadow="2"
     inkscape:window-width="1920"
     inkscape:window-height="1017"
     id="namedview4"
     showgrid="false"
     fit-margin-top="1"
     fit-margin-left="1"
     fit-margin-right="1"
     fit-margin-bottom="1"
     inkscape:zoom="5.2741436"
     inkscape:cx="-36.141151"
     inkscape:cy="8.3264886"
     inkscape:window-x="-8"
     inkscape:window-y="-8"
     inkscape:window-maximized="1"
     inkscape:current-layer="g6842" /><g
     id="g10"
     inkscape:groupmode="layer"
     inkscape:label="BlueLine4_5_14"
     transform="matrix(1.25,0,0,-1.25,-992.25648,1327.9896)"><g
       id="g6840"
       transform="translate(-560.62182,-162.6046)"><g
         id="g6842"
         clip-path="url(#clipPath6844)"><g
           id="g7292"
           transform="translate(1378.749,1212.4703)"><path
             d="m 0,0 c 0,-6.476 -5.267,-11.725 -11.763,-11.725 -6.495,0 -11.759,5.249 -11.759,11.725 0,6.475 5.264,11.726 11.759,11.726 C -5.267,11.726 0,6.475 0,0"
             style="fill:#ed1c2e;fill-opacity:1;fill-rule:nonzero;stroke:none"
             id="path7294"
             inkscape:connector-curvature="0" /></g><g
           id="g7296"
           transform="translate(1358.624,1214.3723)"><path
             d="m 0,0 6.08,0 0,-10.14 4.456,0 0,10.14 6.005,0 0,4.332 -16.565,0 L 0,0 Z"
             style="fill:#ffffff;fill-opacity:1;fill-rule:nonzero;stroke:none"
             id="path7298"
             inkscape:connector-curvature="0" /></g></g></g></g></svg>