<?xml version="1.0" encoding="UTF-8" standalone="no"?>
<svg
   width="246.96201pt"
   height="85.882004pt"
   version="1.1"
   viewBox="0 0 246.962 85.882003"
   id="svg32"
   sodipodi:docname="Pittsburgh_Regional_Transit_Logo_no_text.svg"
   inkscape:version="1.4.2 (ebf0e940, 2025-05-08)"
   xmlns:inkscape="http://www.inkscape.org/namespaces/inkscape"
   xmlns:sodipodi="http://sodipodi.sourceforge.net/DTD/sodipodi-0.dtd"
   xmlns="http://www.w3.org/2000/svg"
   xmlns:svg="http://www.w3.org/2000/svg">
  <sodipodi:namedview
     id="namedview32"
     pagecolor="#ffffff"
     bordercolor="#000000"
     borderopacity="0.25"
     inkscape:showpageshadow="2"
     inkscape:pageopacity="0.0"
     inkscape:pagecheckerboard="0"
     inkscape:deskcolor="#d1d1d1"
     inkscape:document-units="pt"
     inkscape:zoom="2.4933354"
     inkscape:cx="164.0373"
     inkscape:cy="85.227202"
     inkscape:window-width="1728"
     inkscape:window-height="1080"
     inkscape:window-x="0"
     inkscape:window-y="37"
     inkscape:window-maximized="0"
     inkscape:current-layer="svg32" />
  <defs
     id="defs1">
    <clipPath
       id="clipPath1">
      <rect
         width="552"
         height="612"
         id="rect1"
         x="0"
         y="0" />
    </clipPath>
  </defs>
  <g
     fill="#f0b51e"
     id="g31"
     transform="translate(-128.179,-173.793)">
    <path
       d="m 173.94,201.25 h -6.668 v 13.465 h 6.668 c 3.9336,0 6.8672,-2.1406 6.8672,-6.6992 0,-4.5547 -2.9336,-6.7656 -6.8672,-6.7656 m -14.266,-7.3047 h 14.398 c 8.6016,0 14.602,5.2266 14.602,14.07 0,8.7773 -6,14.004 -14.602,14.004 h -6.8008 v 17.488 h -7.5977 z"
       id="path26" />
    <path
       d="m 253.37,201.25 h -6.8672 v 12.93 h 6.8672 c 3.9297,0 6.7969,-2.2773 6.7969,-6.4336 0,-4.1523 -2.8672,-6.4961 -6.7969,-6.4961 m -14.469,-7.3047 h 14.535 c 8.5977,0 14.598,4.8242 14.598,13 0,6.5664 -3.9336,10.316 -8.7969,11.656 5.5977,2.75 9.5977,10.59 10.93,20.906 h -7.8633 c -1.8008,-10.652 -6.6016,-18.023 -12.336,-18.023 h -3.4648 v 18.023 h -7.6016 z"
       id="path27" />
    <path
       d="m 328.39,201.25 h -11.531 v -7.3047 h 30.668 v 7.3047 h -11.535 v 38.258 h -7.6016 z"
       id="path28" />
    <path
       d="m 171.12,179.14 c -20.73,0 -37.594,16.863 -37.594,37.594 0,20.731 16.863,37.594 37.594,37.594 20.731,0 37.598,-16.863 37.598,-37.594 0,-20.731 -16.867,-37.594 -37.598,-37.594 m 0,80.535 c -23.676,0 -42.941,-19.262 -42.941,-42.941 0,-23.679 19.266,-42.941 42.941,-42.941 23.68,0 42.941,19.262 42.941,42.941 0,23.679 -19.262,42.941 -42.941,42.941"
       id="path29" />
    <path
       d="m 251.66,179.14 c -20.73,0 -37.598,16.863 -37.598,37.594 0,20.731 16.867,37.594 37.598,37.594 20.73,0 37.594,-16.863 37.594,-37.594 0,-20.731 -16.863,-37.594 -37.594,-37.594 m 0,80.535 c -23.68,0 -42.941,-19.262 -42.941,-42.941 0,-23.679 19.262,-42.941 42.941,-42.941 23.676,0 42.941,19.262 42.941,42.941 0,23.679 -19.266,42.941 -42.941,42.941"
       id="path30" />
    <path
       d="m 332.2,179.14 c -20.73,0 -37.594,16.863 -37.594,37.594 0,20.731 16.863,37.594 37.594,37.594 20.731,0 37.598,-16.863 37.598,-37.594 0,-20.731 -16.867,-37.594 -37.598,-37.594 m 0,80.535 c -23.676,0 -42.941,-19.262 -42.941,-42.941 0,-23.679 19.266,-42.941 42.941,-42.941 23.68,0 42.941,19.262 42.941,42.941 0,23.679 -19.262,42.941 -42.941,42.941"
       id="path31" />
  </g>
</svg>
