<?xml version="1.0" encoding="UTF-8"?>
<svg width="246.96pt" height="127.54pt" version="1.1" viewBox="0 0 246.96 127.54" xmlns="http://www.w3.org/2000/svg">
 <defs>
  <clipPath>
   <rect width="552" height="612"/>
  </clipPath>
 </defs>
 <g transform="translate(-128.18 -173.79)">
  <g fill="#3a5c6e">
   <path d="m135.04 283.11h-2.3203v4.6602h2.3203c1.3672 0 2.3828-0.74218 2.3828-2.3203 0-1.5742-1.0156-2.3398-2.3828-2.3398m-4.9609-2.5274h5.0039c2.9922 0 5.0781 1.8086 5.0781 4.8672 0 3.0391-2.0859 4.8477-5.0781 4.8477h-2.3633v6.0469h-2.6406z"/>
   <path d="m143.98 296.34h-2.5508v-11.402h2.5508zm-1.2734-16.453c0.90234 0 1.5508 0.71484 1.5508 1.5742 0 0.8789-0.64844 1.5742-1.5508 1.5742-0.90625 0-1.5742-0.69532-1.5742-1.5742 0-0.85938 0.66797-1.5742 1.5742-1.5742"/>
   <path d="m146.88 296.34v-9.2226h-1.9258v-2.1797h2.0625v-2.668l2.4141-0.55469v3.2227h2.0586v2.1797h-2.0586v9.2226z"/>
   <path d="m153.25 296.34v-9.2226h-1.9219v-2.1797h2.0586v-2.668l2.4141-0.55469v3.2227h2.0625v2.1797h-2.0625v9.2226z"/>
   <path d="m164.89 287.74c-0.73828-0.48828-1.6914-0.8125-2.5703-0.8125-0.97266 0-1.4844 0.48828-1.4844 1.1133 0 0.48828 0.30078 0.74219 0.85547 1.0898l1.832 1.0898c1.4141 0.85546 1.9023 1.8984 1.9023 3.0117 0 1.9688-1.5078 3.3633-4.0781 3.3633-1.0898 0-2.2031-0.30469-2.9688-0.65235v-2.6172c0.57812 0.50782 1.7852 1.0664 2.8281 1.0664 1.0195 0 1.5742-0.51172 1.5742-1.1836 0-0.46094-0.2539-0.83203-0.97265-1.25l-1.9453-1.1602c-1.1836-0.69531-1.6445-1.7148-1.6445-2.8281 0-1.8984 1.4336-3.2656 4.0312-3.2656 0.94922 0 1.9219 0.20703 2.6406 0.46094z"/>
   <path d="m172.72 294.09c1.9492 0 3.3867-1.5781 3.3867-3.457 0-1.8984-1.4375-3.4297-3.3867-3.4297-1.9688 0-3.4062 1.5312-3.4062 3.4297 0 1.8789 1.4375 3.457 3.4062 3.457m-3.4062 2.2461h-2.5508v-15.992h2.5508v6.4414c0.78906-1.2734 2.1797-2.082 3.8945-2.082 3.2422 0 5.5391 2.5703 5.5391 5.9297 0 3.3398-2.2969 5.957-5.5156 5.957-1.7383 0-3.1289-0.83203-3.918-2.1055z"/>
   <path d="m187.32 294.74c-0.60156 1.0898-1.6445 1.8555-3.2226 1.8555-2.5039 0-4.125-1.8789-4.125-4.4062v-7.2539h2.5469v6.5586c0 1.5547 0.90625 2.5977 2.3906 2.5977 1.4375 0 2.3398-0.97656 2.4102-2.4336v-6.7227h2.5274v11.402h-2.5274z"/>
   <path d="m194.43 286.33c0.53516-0.94921 1.4609-1.6211 2.8047-1.6211 0.30078 0 0.67188 0.0234 0.94922 0.0703v2.7109c-0.41797-0.1875-0.94922-0.30078-1.5273-0.30078-1.3945 0-2.1797 0.97266-2.2266 2.4336v6.7188h-2.5508v-11.402h2.5508z"/>
   <path d="m204.05 287.21c-1.875 0-3.2695 1.4375-3.2695 3.2695 0 1.8555 1.3945 3.2891 3.2695 3.2891 1.8789 0 3.2695-1.4336 3.2695-3.2891 0-1.832-1.3906-3.2695-3.2695-3.2695m5.957-2.2695v10.289c0 3.9414-2.3867 6.0977-6.1406 6.0977-1.668 0-3.1524-0.48828-3.918-0.92578v-2.668c0.92578 0.64844 2.4805 1.207 3.918 1.207 2.0859 0 3.5898-1.3438 3.5898-3.4062v-1.3242c-0.80859 1.207-2.1758 2.0391-3.9375 2.0391-3.1523 0-5.4492-2.4805-5.4492-5.7461 0-3.2656 2.2969-5.793 5.4258-5.793 1.7852 0 3.1524 0.83203 3.9609 2.0859v-1.8555z"/>
   <path d="m214.59 286.56c0.625-1.1133 1.668-1.8516 3.1992-1.8516 2.5273 0 4.1484 1.8516 4.1484 4.4023v7.2305h-2.5508v-6.582c0-1.5312-0.90234-2.5742-2.3867-2.5742-1.457 0-2.3633 0.97657-2.4102 2.4375v6.7188h-2.5508v-15.992h2.5508z"/>
   <path d="m233.55 283.11h-2.3867v4.4726h2.3867c1.3672 0 2.3633-0.78515 2.3633-2.2226s-0.99609-2.25-2.3633-2.25m-5.0273-2.5274h5.0508c2.9922 0 5.0742 1.6719 5.0742 4.4961 0 2.2734-1.3672 3.5703-3.0586 4.0352 1.9453 0.94922 3.3398 3.6641 3.8008 7.2305h-2.7344c-0.625-3.6836-2.293-6.2344-4.2852-6.2344h-1.207v6.2344h-2.6406z"/>
   <path d="m242.17 289.53h6.1406c-0.043-1.5976-1.3203-2.6875-2.9883-2.6875-1.7148 0-2.9922 1.2031-3.1524 2.6875m0.0234 1.9688c0.25391 1.6445 1.6211 2.7812 3.4766 2.7812 1.5078 0 2.9883-0.55468 3.9844-1.25v2.5274c-0.97266 0.55468-2.457 1.043-4.1719 1.043-3.3594 0-5.8633-2.457-5.8633-5.957 0-3.3633 2.4336-5.9336 5.7266-5.9336 3.2656 0 5.4219 2.4766 5.4219 5.4922 0 0.4414-0.0703 0.97265-0.16016 1.2969z"/>
   <path d="m257.23 287.21c-1.8789 0-3.2695 1.4375-3.2695 3.2695 0 1.8555 1.3906 3.2891 3.2695 3.2891 1.875 0 3.2695-1.4336 3.2695-3.2891 0-1.832-1.3945-3.2695-3.2695-3.2695m5.957-2.2695v10.289c0 3.9414-2.3906 6.0977-6.1445 6.0977-1.668 0-3.1523-0.48828-3.918-0.92578v-2.668c0.92968 0.64844 2.4805 1.207 3.918 1.207 2.0859 0 3.5938-1.3438 3.5938-3.4062v-1.3242c-0.8125 1.207-2.1797 2.0391-3.9414 2.0391-3.1524 0-5.4453-2.4805-5.4453-5.7461 0-3.2656 2.293-5.793 5.4219-5.793 1.7852 0 3.1523 0.83203 3.9648 2.0859v-1.8555z"/>
   <path d="m267.78 296.34h-2.5508v-11.402h2.5508zm-1.2734-16.453c0.90234 0 1.5508 0.71484 1.5508 1.5742 0 0.8789-0.64844 1.5742-1.5508 1.5742-0.90625 0-1.5781-0.69532-1.5781-1.5742 0-0.85938 0.67188-1.5742 1.5781-1.5742"/>
   <path d="m275.01 294.09c1.9219 0 3.3359-1.5547 3.3359-3.457 0-1.8984-1.4141-3.4531-3.3359-3.4531-1.9023 0-3.3633 1.5547-3.3633 3.4531 0 1.9023 1.4609 3.457 3.3633 3.457m0-9.3867c3.3359 0 5.9336 2.5703 5.9336 5.9297 0 3.3398-2.5977 5.957-5.9336 5.957-3.3633 0-5.9336-2.6172-5.9336-5.957 0-3.3594 2.5703-5.9297 5.9336-5.9297"/>
   <path d="m284.76 286.56c0.60547-1.1133 1.6719-1.8516 3.1992-1.8516 2.5273 0 4.1484 1.8516 4.1484 4.4023v7.2305h-2.5508v-6.582c0-1.5312-0.89843-2.5742-2.4062-2.5742-1.4375 0-2.3438 0.97657-2.3906 2.4375v6.7188h-2.5469v-11.402h2.5469z"/>
   <path d="m299.25 287.18c-1.8984 0-3.3359 1.5547-3.3359 3.457 0 1.8984 1.4375 3.4531 3.3359 3.4531 1.9258 0 3.3398-1.5547 3.3398-3.4531 0-1.9023-1.4141-3.457-3.3398-3.457m3.3398 9.1562v-1.875c-0.8125 1.3203-2.1562 2.1328-3.8242 2.1328-3.1992 0-5.4492-2.6211-5.4492-5.957 0-3.3633 2.25-5.9336 5.4492-5.9336 1.668 0 3.0117 0.80859 3.8242 2.1094v-1.8789h2.5469v11.402z"/>
   <path d="m309.74 296.34h-2.5469v-15.992h2.5469z"/>
   <path d="m318.39 283.11h-4.0078v-2.5274h10.66v2.5274h-4.0078v13.234h-2.6445z"/>
   <path d="m327.77 286.33c0.53515-0.94921 1.4609-1.6211 2.8047-1.6211 0.30079 0 0.67188 0.0234 0.94922 0.0703v2.7109c-0.41797-0.1875-0.94922-0.30078-1.5273-0.30078-1.3945 0-2.1797 0.97266-2.2266 2.4336v6.7188h-2.5508v-11.402h2.5508z"/>
   <path d="m337.34 287.18c-1.8984 0-3.3359 1.5547-3.3359 3.457 0 1.8984 1.4375 3.4531 3.3359 3.4531 1.9258 0 3.3398-1.5547 3.3398-3.4531 0-1.9023-1.4141-3.457-3.3398-3.457m3.3398 9.1562v-1.875c-0.8125 1.3203-2.1562 2.1328-3.8242 2.1328-3.1992 0-5.4492-2.6211-5.4492-5.957 0-3.3633 2.25-5.9336 5.4492-5.9336 1.668 0 3.0117 0.80859 3.8242 2.1094v-1.8789h2.5508v11.402z"/>
   <path d="m347.82 286.56c0.60156-1.1133 1.668-1.8516 3.1992-1.8516 2.5234 0 4.1445 1.8516 4.1445 4.4023v7.2305h-2.5469v-6.582c0-1.5312-0.90625-2.5742-2.4102-2.5742-1.4375 0-2.3398 0.97657-2.3867 2.4375v6.7188h-2.5508v-11.402h2.5508z"/>
   <path d="m363.21 287.74c-0.74219-0.48828-1.6914-0.8125-2.5742-0.8125-0.97265 0-1.4844 0.48828-1.4844 1.1133 0 0.48828 0.30468 0.74219 0.85937 1.0898l1.832 1.0898c1.4141 0.85546 1.8984 1.8984 1.8984 3.0117 0 1.9688-1.5039 3.3633-4.0781 3.3633-1.0898 0-2.2031-0.30469-2.9688-0.65235v-2.6172c0.58203 0.50782 1.7852 1.0664 2.8281 1.0664 1.0234 0 1.5781-0.51172 1.5781-1.1836 0-0.46094-0.25391-0.83203-0.97266-1.25l-1.9492-1.1602c-1.1797-0.69531-1.6445-1.7148-1.6445-2.8281 0-1.8984 1.4375-3.2656 4.0312-3.2656 0.95312 0 1.9258 0.20703 2.6445 0.46094z"/>
   <path d="m367.63 296.34h-2.5508v-11.402h2.5508zm-1.2773-16.453c0.90625 0 1.5547 0.71484 1.5547 1.5742 0 0.8789-0.64844 1.5742-1.5547 1.5742-0.90235 0-1.5742-0.69532-1.5742-1.5742 0-0.85938 0.67187-1.5742 1.5742-1.5742"/>
   <path d="m370.53 296.34v-9.2226h-1.9219v-2.1797h2.0625v-2.668l2.4102-0.55469v3.2227h2.0625v2.1797h-2.0625v9.2226z"/>
  </g>
  <g fill="#f0b51e">
   <path d="m173.94 201.25h-6.668v13.465h6.668c3.9336 0 6.8672-2.1406 6.8672-6.6992 0-4.5547-2.9336-6.7656-6.8672-6.7656m-14.266-7.3047h14.398c8.6016 0 14.602 5.2266 14.602 14.07 0 8.7773-6 14.004-14.602 14.004h-6.8008v17.488h-7.5977z"/>
   <path d="m253.37 201.25h-6.8672v12.93h6.8672c3.9297 0 6.7969-2.2773 6.7969-6.4336 0-4.1523-2.8672-6.4961-6.7969-6.4961m-14.469-7.3047h14.535c8.5977 0 14.598 4.8242 14.598 13 0 6.5664-3.9336 10.316-8.7969 11.656 5.5977 2.75 9.5977 10.59 10.93 20.906h-7.8633c-1.8008-10.652-6.6016-18.023-12.336-18.023h-3.4648v18.023h-7.6016z"/>
   <path d="m328.39 201.25h-11.531v-7.3047h30.668v7.3047h-11.535v38.258h-7.6016z"/>
   <path d="m171.12 179.14c-20.73 0-37.594 16.863-37.594 37.594s16.863 37.594 37.594 37.594 37.598-16.863 37.598-37.594-16.867-37.594-37.598-37.594m0 80.535c-23.676 0-42.941-19.262-42.941-42.941s19.266-42.941 42.941-42.941c23.68 0 42.941 19.262 42.941 42.941s-19.262 42.941-42.941 42.941"/>
   <path d="m251.66 179.14c-20.73 0-37.598 16.863-37.598 37.594s16.867 37.594 37.598 37.594c20.73 0 37.594-16.863 37.594-37.594s-16.863-37.594-37.594-37.594m0 80.535c-23.68 0-42.941-19.262-42.941-42.941s19.262-42.941 42.941-42.941c23.676 0 42.941 19.262 42.941 42.941s-19.266 42.941-42.941 42.941"/>
   <path d="m332.2 179.14c-20.73 0-37.594 16.863-37.594 37.594s16.863 37.594 37.594 37.594 37.598-16.863 37.598-37.594-16.867-37.594-37.598-37.594m0 80.535c-23.676 0-42.941-19.262-42.941-42.941s19.266-42.941 42.941-42.941c23.68 0 42.941 19.262 42.941 42.941s-19.262 42.941-42.941 42.941"/>
  </g>
 </g>
</svg>
