<?xml version="1.0" encoding="UTF-8" standalone="no"?>
<svg
   viewBox="0 0 101 46"
   fill="none"
   class="text-red w-16"
   version="1.1"
   id="svg4"
   sodipodi:docname="RTD Denver logo.svg"
   inkscape:version="1.2.2 (b0a8486541, 2022-12-01)"
   width="101"
   height="46"
   xmlns:inkscape="http://www.inkscape.org/namespaces/inkscape"
   xmlns:sodipodi="http://sodipodi.sourceforge.net/DTD/sodipodi-0.dtd"
   xmlns="http://www.w3.org/2000/svg"
   xmlns:svg="http://www.w3.org/2000/svg">
  <defs
     id="defs8" />
  <sodipodi:namedview
     id="namedview6"
     pagecolor="#ffffff"
     bordercolor="#000000"
     borderopacity="0.25"
     inkscape:showpageshadow="2"
     inkscape:pageopacity="0.0"
     inkscape:pagecheckerboard="0"
     inkscape:deskcolor="#d1d1d1"
     showgrid="false"
     inkscape:zoom="1.3346641"
     inkscape:cx="-68.556578"
     inkscape:cy="314.68593"
     inkscape:window-width="1918"
     inkscape:window-height="2054"
     inkscape:window-x="-10"
     inkscape:window-y="0"
     inkscape:window-maximized="0"
     inkscape:current-layer="svg4" />
  <path
     fill="currentColor"
     d="m 19.1955,26.449 19.212,19.21 h -6.102 L 17.4205,30.777 h -6.122 V 45.66 H 6.9805 V 26.449 h 12.216 z m 8.959,-10.675 c 0,4.7 -3.827,8.526 -8.526,8.526 H 6.9715 V 6.826 h 12.657 c 4.62,-0.01 8.526,4.091 8.526,8.948 z m -4.317,0 c 0,-2.424 -2.002,-4.641 -4.21,-4.641 h -8.34 v 8.84 h 8.34 c 2.316,0 4.21,-1.884 4.21,-4.2 z M 46.5315,6.816 V 45.66 h -5.072 L 21.9825,26.184 c 4.76,-1.08 8.32,-5.338 8.32,-10.42 0,-3.63 -1.775,-6.917 -4.444,-8.958 h 20.673 z m -4.317,4.317 h -8.31 c 0.47,1.472 0.726,3.032 0.726,4.64 0,4.632 -2.11,8.782 -5.416,11.53 l 13,13 z m 35.842,28.051 h -9.979 V 6.816 h 9.979 c 8.654,0 15.963,7.506 15.963,16.395 0,8.81 -7.162,15.973 -15.963,15.973 z m -5.662,-4.317 h 5.652 c 6.427,0 11.646,-5.23 11.646,-11.646 0,-6.554 -5.337,-12.078 -11.646,-12.078 h -5.651 V 34.867 Z M 93.9915,7.198 C 89.7225,2.773 84.0605,0.34 78.0555,0.34 h -77.56 v 45.32 h 4.317 V 4.657 h 73.244 c 4.827,0 9.38,1.972 12.833,5.534 3.415,3.532 5.299,8.163 5.299,13.02 0,9.998 -8.134,18.122 -18.122,18.122 H 65.9295 V 6.806 h -17.24 V 45.65 h 4.318 V 11.123 h 8.605 V 45.65 h 16.453 c 12.372,0 22.439,-10.067 22.439,-22.439 -0.01,-5.985 -2.316,-11.676 -6.515,-16.013 z"
     id="path2"
     style="fill:#ce0e2d;fill-opacity:1" />
</svg>
