<?xml version="1.0" encoding="UTF-8" standalone="no"?>
<!-- Created with Inkscape (http://www.inkscape.org/) -->

<svg
   xmlns:dc="http://purl.org/dc/elements/1.1/"
   xmlns:cc="http://creativecommons.org/ns#"
   xmlns:rdf="http://www.w3.org/1999/02/22-rdf-syntax-ns#"
   xmlns:svg="http://www.w3.org/2000/svg"
   xmlns="http://www.w3.org/2000/svg"
   xmlns:sodipodi="http://sodipodi.sourceforge.net/DTD/sodipodi-0.dtd"
   xmlns:inkscape="http://www.inkscape.org/namespaces/inkscape"
   id="svg2"
   version="1.1"
   inkscape:version="0.48.4 r9939"
   width="540.24377"
   height="82.125"
   xml:space="preserve"
   sodipodi:docname="Sound Transit.svg"><metadata
     id="metadata8"><rdf:RDF><cc:Work
         rdf:about=""><dc:format>image/svg+xml</dc:format><dc:type
           rdf:resource="http://purl.org/dc/dcmitype/StillImage" /><dc:title></dc:title></cc:Work></rdf:RDF></metadata><defs
     id="defs6"><clipPath
       clipPathUnits="userSpaceOnUse"
       id="clipPath12"><path
         d="M 0,0 612,0 612,792 0,792 0,0 z"
         id="path14"
         inkscape:connector-curvature="0" /></clipPath><clipPath
       clipPathUnits="userSpaceOnUse"
       id="clipPath24"><path
         d="m -1,793 614,0 0,-794 -614,0 0,794 z"
         id="path26"
         inkscape:connector-curvature="0" /></clipPath><clipPath
       clipPathUnits="userSpaceOnUse"
       id="clipPath32"><path
         d="m 0,792.06 612,0 0,-792 -612,0 0,792 z"
         id="path34"
         inkscape:connector-curvature="0" /></clipPath><clipPath
       clipPathUnits="userSpaceOnUse"
       id="clipPath66"><path
         d="m 284.594,647.346 81.406,0 0,-444.823 -81.406,0 0,444.823 z"
         clip-rule="evenodd"
         id="path68"
         inkscape:connector-curvature="0" /></clipPath><clipPath
       clipPathUnits="userSpaceOnUse"
       id="clipPath74"><path
         d="m -1,793 614,0 0,-794 -614,0 0,794 z"
         id="path76"
         inkscape:connector-curvature="0" /></clipPath><clipPath
       clipPathUnits="userSpaceOnUse"
       id="clipPath82"><path
         d="m 0,792.06 612,0 0,-792 -612,0 0,792 z"
         id="path84"
         inkscape:connector-curvature="0" /></clipPath><clipPath
       clipPathUnits="userSpaceOnUse"
       id="clipPath142"><path
         d="m -1,793 614,0 0,-794 -614,0 0,794 z"
         id="path144"
         inkscape:connector-curvature="0" /></clipPath><clipPath
       clipPathUnits="userSpaceOnUse"
       id="clipPath150"><path
         d="m 0,792.06 612,0 0,-792 -612,0 0,792 z"
         id="path152"
         inkscape:connector-curvature="0" /></clipPath><clipPath
       clipPathUnits="userSpaceOnUse"
       id="clipPath162"><path
         d="m 391.136,107.45 79.16,0 0,-89.45 -79.16,0 0,89.45 z"
         clip-rule="evenodd"
         id="path164"
         inkscape:connector-curvature="0" /></clipPath><clipPath
       clipPathUnits="userSpaceOnUse"
       id="clipPath170"><path
         d="m -1,793 614,0 0,-794 -614,0 0,794 z"
         id="path172"
         inkscape:connector-curvature="0" /></clipPath><clipPath
       clipPathUnits="userSpaceOnUse"
       id="clipPath178"><path
         d="m 0,792.06 612,0 0,-792 -612,0 0,792 z"
         id="path180"
         inkscape:connector-curvature="0" /></clipPath><clipPath
       clipPathUnits="userSpaceOnUse"
       id="clipPath242"><path
         d="m -1,793 614,0 0,-794 -614,0 0,794 z"
         id="path244"
         inkscape:connector-curvature="0" /></clipPath><clipPath
       clipPathUnits="userSpaceOnUse"
       id="clipPath250"><path
         d="m 0,792.06 612,0 0,-792 -612,0 0,792 z"
         id="path252"
         inkscape:connector-curvature="0" /></clipPath></defs><sodipodi:namedview
     pagecolor="#ffffff"
     bordercolor="#666666"
     borderopacity="1"
     objecttolerance="10"
     gridtolerance="10"
     guidetolerance="10"
     inkscape:pageopacity="0"
     inkscape:pageshadow="2"
     inkscape:window-width="708"
     inkscape:window-height="480"
     id="namedview4"
     showgrid="false"
     inkscape:zoom="0.43628026"
     inkscape:cx="341.03801"
     inkscape:cy="7.8764682"
     inkscape:window-x="72"
     inkscape:window-y="274"
     inkscape:window-maximized="0"
     inkscape:current-layer="g10"
     fit-margin-top="0"
     fit-margin-left="0"
     fit-margin-right="0"
     fit-margin-bottom="0" /><g
     id="g10"
     inkscape:groupmode="layer"
     inkscape:label="Sound Transit Signage Design Manual, 2004"
     transform="matrix(0,-1.25,-1.25,0,802.4575,449.64125)"
     clip-path="url(#clipPath12)"><g
       id="g16"
       transform="translate(594,784)"><path
         d="M 0,0 0,0"
         style="fill:#ffffff;fill-opacity:1;fill-rule:nonzero;stroke:none"
         id="path18"
         inkscape:connector-curvature="0" /></g><g
       id="g62"
       style="fill:#003e7e;fill-opacity:1"><g
         id="g64"
         clip-path="url(#clipPath66)"
         style="fill:#003e7e;fill-opacity:1"><g
           id="g70"
           style="fill:#003e7e;fill-opacity:1"><g
             id="g72"
             clip-path="url(#clipPath74)"
             style="fill:#003e7e;fill-opacity:1"><g
               id="g78"
               style="fill:#003e7e;fill-opacity:1"><g
                 id="g80"
                 clip-path="url(#clipPath82)"
                 style="fill:#003e7e;fill-opacity:1"><g
                   id="g86"
                   transform="translate(340.943,512.858)"
                   style="fill:#003e7e;fill-opacity:1"><path
                     d="m 0,0 -8.741,1.543 c 1.345,2.456 2.42,6.019 2.42,8.975 0,3.561 -1.613,7.265 -5.109,7.694 -8.539,1.048 -4.572,-17.916 -21.246,-15.869 -8.875,1.09 -14.254,7.988 -14.254,17.327 0,5.711 1.345,10.451 1.95,12.392 l 9.144,-1.727 c -1.278,-3.135 -2.892,-5.827 -2.892,-9.925 0,-3.494 1.749,-7.886 5.581,-8.356 9.077,-1.115 4.639,17.907 21.381,15.852 C -10.355,27.733 1.613,26.543 1.613,10.821 1.613,6.521 0.874,3.924 0,0"
                     style="fill:#003e7e;fill-opacity:1;fill-rule:nonzero;stroke:none"
                     id="path88"
                     inkscape:connector-curvature="0" /></g><g
                   id="g90"
                   transform="translate(312.467,511.904)"
                   style="fill:#003e7e;fill-opacity:1"><path
                     d="m 0,0 c 10.365,-1.272 18.254,-7.041 18.254,-17.198 0,-10.157 -7.889,-14.04 -18.254,-12.767 -10.366,1.273 -18.254,7.092 -18.254,17.249 C -18.254,-2.559 -10.366,1.273 0,0 z m 0,-8.489 c -6.776,0.832 -12.288,-0.159 -12.288,-4.96 0,-4.8 5.512,-7.195 12.288,-8.027 6.775,-0.832 12.287,0.21 12.287,5.01 0,4.801 -5.512,7.145 -12.287,7.977"
                     style="fill:#003e7e;fill-opacity:1;fill-rule:evenodd;stroke:none"
                     id="path92"
                     inkscape:connector-curvature="0" /></g><g
                   id="g94"
                   transform="translate(307.612,479.244)"
                   style="fill:#003e7e;fill-opacity:1"><path
                     d="m 0,0 22.502,-2.763 0,-8.287 -23.816,2.924 c -3.54,0.435 -5.714,-0.612 -5.714,-3.947 0,-3.336 2.174,-4.916 5.714,-5.351 l 23.816,-2.924 0,-8.287 L 0,-25.872 c -8.747,1.074 -13.399,6.647 -13.399,14.581 C -13.399,-3.358 -8.747,1.074 0,0"
                     style="fill:#003e7e;fill-opacity:1;fill-rule:nonzero;stroke:none"
                     id="path96"
                     inkscape:connector-curvature="0" /></g><g
                   id="g98"
                   transform="translate(294.82,450.786)"
                   style="fill:#003e7e;fill-opacity:1"><path
                     d="m 0,0 35.294,-4.333 0,-9.702 -24.474,-7.254 24.474,-3.105 0,-7.277 L 0,-27.338 0,-17.535 25.535,-10.513 0,-7.277 0,0"
                     style="fill:#003e7e;fill-opacity:1;fill-rule:nonzero;stroke:none"
                     id="path100"
                     inkscape:connector-curvature="0" /></g><g
                   id="g102"
                   transform="translate(294.82,418.932)"
                   style="fill:#003e7e;fill-opacity:1"><path
                     d="m 0,0 35.294,-4.333 0,-12.532 c 0,-7.934 -4.652,-15.195 -17.951,-13.562 C 5.157,-28.931 0,-20.364 0,-11.471 L 0,0 z m 29.125,-11.863 -22.957,2.818 0,-2.627 c 0,-6.014 4.753,-9.275 11.175,-10.064 7.282,-0.894 11.782,1.333 11.782,7.75 l 0,2.123"
                     style="fill:#003e7e;fill-opacity:1;fill-rule:evenodd;stroke:none"
                     id="path104"
                     inkscape:connector-curvature="0" /></g><g
                   id="g106"
                   transform="translate(294.82,383.127)"
                   style="fill:#003e7e;fill-opacity:1"><path
                     d="m 0,0 38.458,-4.721 0,10.213 8.471,-1.041 0,-29.809 -8.471,1.04 0,10.213 L 0,-9.384 0,0"
                     style="fill:#003e7e;fill-opacity:1;fill-rule:nonzero;stroke:none"
                     id="path108"
                     inkscape:connector-curvature="0" /></g><g
                   id="g110"
                   transform="translate(294.82,363.676)"
                   style="fill:#003e7e;fill-opacity:1"><path
                     d="m 0,0 35.294,-4.334 0,-12.936 c 0,-5.811 -2.579,-10.446 -9.102,-9.646 -1.466,0.18 -7.281,1.097 -8.646,8.086 -0.405,-2.527 -1.821,-3.364 -6.018,-4.163 L 0,-25.216 l 0,8.692 9.455,1.567 c 4.804,0.775 4.804,1.887 4.804,4.919 L 0,-8.288 0,0 z m 29.327,-11.585 -9.101,1.117 0,-2.577 c 0,-3.183 2.123,-5.112 4.652,-5.422 1.466,-0.18 4.449,-0.092 4.449,4.355 l 0,2.527"
                     style="fill:#003e7e;fill-opacity:1;fill-rule:evenodd;stroke:none"
                     id="path112"
                     inkscape:connector-curvature="0" /></g><g
                   id="g114"
                   transform="translate(294.82,315.109)"
                   style="fill:#003e7e;fill-opacity:1"><path
                     d="m 0,0 7.888,1.205 0,11.066 L 0,15.665 0,23.649 35.294,7.592 l 0,-9.095 L 0,-8.489 0,0 z m 13.854,2.089 14.664,1.838 -14.664,6.095 0,-7.933"
                     style="fill:#003e7e;fill-opacity:1;fill-rule:evenodd;stroke:none"
                     id="path116"
                     inkscape:connector-curvature="0" /></g><g
                   id="g118"
                   transform="translate(294.82,305.138)"
                   style="fill:#003e7e;fill-opacity:1"><path
                     d="m 0,0 35.294,-4.333 0,-9.702 -24.474,-7.254 24.474,-3.105 0,-7.277 L 0,-27.338 0,-17.535 25.535,-10.513 0,-7.277 0,0"
                     style="fill:#003e7e;fill-opacity:1;fill-rule:nonzero;stroke:none"
                     id="path120"
                     inkscape:connector-curvature="0" /></g><g
                   id="g122"
                   transform="translate(329.507,249.469)"
                   style="fill:#003e7e;fill-opacity:1"><path
                     d="m 0,0 -6.573,1.161 c 1.011,1.847 1.82,4.527 1.82,6.75 0,2.678 -1.214,4.848 -3.843,5.171 -6.422,0.789 -3.438,-13.474 -15.978,-11.934 -6.675,0.819 -10.72,6.622 -10.72,13.646 0,4.295 1.011,7.859 1.466,9.32 l 6.877,-1.3 c -0.961,-2.358 -2.174,-4.382 -2.174,-7.464 0,-2.627 1.314,-5.315 4.197,-5.669 6.826,-0.838 3.489,13.467 16.079,11.922 C -7.787,21.472 1.214,19.963 1.214,8.139 1.214,4.905 0.658,2.952 0,0"
                     style="fill:#003e7e;fill-opacity:1;fill-rule:nonzero;stroke:none"
                     id="path124"
                     inkscape:connector-curvature="0" /></g><g
                   id="g126"
                   transform="translate(294.82,248.166)"
                   style="fill:#003e7e;fill-opacity:1"><path
                     d="m 0,0 35.294,-4.334 0,-8.287 L 0,-8.288 0,0"
                     style="fill:#003e7e;fill-opacity:1;fill-rule:nonzero;stroke:none"
                     id="path128"
                     inkscape:connector-curvature="0" /></g><g
                   id="g130"
                   transform="translate(294.82,230.072)"
                   style="fill:#003e7e;fill-opacity:1"><path
                     d="m 0,0 28.923,-3.551 0,7.681 6.371,-0.782 0,-23.649 -6.371,0.782 0,7.681 L 0,-8.287 0,0"
                     style="fill:#003e7e;fill-opacity:1;fill-rule:nonzero;stroke:none"
                     id="path132"
                     inkscape:connector-curvature="0" /></g><g
                   id="g134"
                   transform="translate(323.337,610.958)"
                   style="fill:#003e7e;fill-opacity:1"><path
                     d="M 0,0 0.006,-12.487 0,-14.736 c 0,-4.958 4.019,-9.471 8.978,-10.079 4.958,-0.609 8.977,2.916 8.977,7.875 0,4.958 -0.022,5.543 -0.022,6.758 0,1.215 0.985,2.079 2.2,1.93 1.215,-0.15 2.2,-1.255 2.2,-2.471 l 0,-46.754 -15.556,1.911 0,25.868 -35.199,4.322 0,34.839 L 0,5.973 0,0 z m 36.376,-59.201 -7.266,0.892 0,46.754 c 0,4.959 -4.019,9.471 -8.977,10.08 -4.959,0.609 -8.978,-2.917 -8.978,-7.875 l 0.023,-6.758 c 0,-1.215 -0.985,-2.079 -2.2,-1.93 -1.215,0.149 -2.2,1.255 -2.2,2.47 l -0.003,3.081 0,13.013 0.002,4.615 -0.002,4.663 0,3.174 0.002,18.03 29.599,-3.634 0,-86.575"
                     style="fill:#003e7e;fill-opacity:1;fill-rule:evenodd;stroke:none"
                     id="path136"
                     inkscape:connector-curvature="0" /></g></g></g></g></g></g></g></g></svg>