<?xml version="1.0" encoding="UTF-8" standalone="no"?>
<svg
   xmlns:dc="http://purl.org/dc/elements/1.1/"
   xmlns:cc="http://creativecommons.org/ns#"
   xmlns:rdf="http://www.w3.org/1999/02/22-rdf-syntax-ns#"
   xmlns:svg="http://www.w3.org/2000/svg"
   xmlns="http://www.w3.org/2000/svg"
   xmlns:sodipodi="http://sodipodi.sourceforge.net/DTD/sodipodi-0.dtd"
   xmlns:inkscape="http://www.inkscape.org/namespaces/inkscape"
   viewBox="0 0 2357.7004 1371.0584"
   height="362.75919mm"
   width="623.80823mm"
   xml:space="preserve"
   version="1.1"
   id="svg3336"
   sodipodi:docname="trimet max logo bold.svg"
   inkscape:version="0.92.3 (2405546, 2018-03-11)"><sodipodi:namedview
   pagecolor="#ffffff"
   bordercolor="#666666"
   borderopacity="1"
   objecttolerance="10"
   gridtolerance="10"
   guidetolerance="10"
   inkscape:pageopacity="0"
   inkscape:pageshadow="2"
   inkscape:window-width="1366"
   inkscape:window-height="746"
   id="namedview6341"
   showgrid="false"
   inkscape:zoom="0.13350987"
   inkscape:cx="-47.104839"
   inkscape:cy="-118.40527"
   inkscape:window-x="1432"
   inkscape:window-y="-8"
   inkscape:window-maximized="1"
   inkscape:current-layer="svg3336"
   fit-margin-top="0"
   fit-margin-left="0"
   fit-margin-right="0"
   fit-margin-bottom="0" /><metadata
   id="metadata3342"><rdf:RDF><cc:Work
       rdf:about=""><dc:format>image/svg+xml</dc:format><dc:type
         rdf:resource="http://purl.org/dc/dcmitype/StillImage" /><dc:title></dc:title></cc:Work></rdf:RDF></metadata><defs
   id="defs3340"><clipPath
     id="clipPath60200"
     clipPathUnits="userSpaceOnUse"><path
       id="path60202"
       d="M 0,1008 H 1512 V 0 H 0 Z"
       inkscape:connector-curvature="0" /></clipPath></defs><g
   transform="matrix(1.2498406,0,0,-1.25,-764.61098,1078.6887)"
   id="g3344"><g
     transform="matrix(8,0,0,8,613.7436,751.51504)"
     id="g60192"><path
       id="path60194"
       style="fill:#005189;fill-opacity:1;fill-rule:nonzero;stroke:none"
       d="M 0,0 H 18.206 V -5.054 H 12.05 V -25.656 H 6.159 V -5.054 H 0"
       inkscape:connector-curvature="0" /></g><g
     transform="matrix(8,0,0,8,-168.4332,-6710.205)"
     id="g60196"><g
       clip-path="url(#clipPath60200)"
       id="g60198"><g
         transform="translate(149.2703,907.0593)"
         id="g60204"><path
           id="path60206"
           style="fill:#005189;fill-opacity:1;fill-rule:nonzero;stroke:none"
           d="m 0,0 -5.434,8.249 c -0.647,0.949 -1.295,1.906 -1.979,2.887 3.423,0.839 5.668,3.651 5.668,7.111 0,5.432 -3.655,7.603 -9.694,7.603 -3.082,0 -5.852,-0.037 -8.018,-0.194 V 0 h 5.927 v 10.035 h 0.229 L -7.216,0 Z m -7.944,17.748 c 0,-2.162 -1.596,-3.49 -4.101,-3.49 -0.572,0 -1.179,0.035 -1.485,0.07 v 6.58 c 0.343,0.036 1.03,0.078 1.632,0.078 2.775,0 3.954,-1.221 3.954,-3.238"
           inkscape:connector-curvature="0" /></g><path
         id="path60208"
         style="fill:#005189;fill-opacity:1;fill-rule:nonzero;stroke:none"
         d="m 163.219,932.715 h 5.934 v -25.656 h -5.934 z"
         inkscape:connector-curvature="0" /><g
         transform="translate(268.994,907.0593)"
         id="g60210"><path
           id="path60212"
           style="fill:#005189;fill-opacity:1;fill-rule:nonzero;stroke:none"
           d="m 0,0 -1.636,10.569 c -0.341,2.09 -0.571,3.992 -0.757,5.967 H -2.471 C -2.855,14.634 -3.307,12.7 -3.957,10.492 L -7.107,0 h -5.705 l -3.036,9.578 c -0.687,2.203 -1.333,4.68 -1.674,6.958 h -0.038 c -0.23,-2.398 -0.492,-4.373 -0.763,-6.501 L -19.612,0 h -5.969 l 4.104,25.656 h 6.808 l 3.573,-11.247 c 0.57,-1.79 0.984,-3.573 1.365,-5.591 h 0.077 c 0.38,2.052 0.834,3.651 1.442,5.623 l 3.65,11.215 H 2.126 L 6.234,0 Z"
           inkscape:connector-curvature="0" /></g><g
         transform="translate(287.351,907.0593)"
         id="g60214"><path
           id="path60216"
           style="fill:#005189;fill-opacity:1;fill-rule:nonzero;stroke:none"
           d="M 0,0 V 25.656 H 14.439 V 20.68 H 5.931 v -5.094 h 8.057 V 10.754 H 5.931 v -5.66 h 8.508 V 0 Z"
           inkscape:connector-curvature="0" /></g><g
         transform="translate(326.8047,927.6609)"
         id="g60218"><path
           id="path60220"
           style="fill:#005189;fill-opacity:1;fill-rule:nonzero;stroke:none"
           d="M 0,0 V -20.602 H -5.891 V 0 H -12.05 V 5.054 H 6.156 V 0 Z"
           inkscape:connector-curvature="0" /></g><g
         transform="translate(234.4247,919.7885)"
         id="g60222"><path
           id="path60224"
           style="fill:#d34727;fill-opacity:1;fill-rule:nonzero;stroke:none"
           d="m 0,0 c 0,-14.836 -12.025,-26.86 -26.858,-26.86 -14.831,0 -26.857,12.024 -26.857,26.86 0,14.833 12.026,26.856 26.857,26.856 C -12.025,26.856 0,14.833 0,0"
           inkscape:connector-curvature="0" /></g><g
         transform="translate(221.7527,911.0394)"
         id="g60226"><path
           id="path60228"
           style="fill:#ffffff;fill-opacity:1;fill-rule:nonzero;stroke:none"
           d="m 0,0 c -1.32,-2.286 -3.453,-3.924 -6.005,-4.61 -1.158,-0.31 -2.341,-0.404 -3.503,-0.294 1.662,1.715 2.869,3.832 3.502,6.203 0.983,3.664 0.478,7.491 -1.421,10.788 -0.567,0.979 -1.248,1.881 -2.023,2.693 1.965,0.179 4,-0.224 5.834,-1.28 C -1.33,12.182 0.304,10.051 0.986,7.502 1.671,4.95 1.318,2.287 0,0 m -22.281,-4.577 c -2.553,0.681 -4.686,2.319 -6.005,4.611 -2.021,3.496 -1.648,7.727 0.598,10.798 1.766,-5.841 7.194,-10.101 13.601,-10.101 1.18,0 2.35,0.146 3.482,0.433 -0.828,-1.996 -2.275,-3.651 -4.18,-4.75 -2.283,-1.324 -4.945,-1.675 -7.496,-0.991 m 11.117,14.501 c 0.709,-1.231 1.135,-2.571 1.274,-3.945 -1.302,-0.61 -2.736,-0.932 -4.197,-0.932 -1.539,0 -2.995,0.354 -4.294,0.984 0.146,1.35 0.574,2.668 1.254,3.857 0.772,1.334 1.81,2.419 3.01,3.23 1.204,-0.831 2.214,-1.923 2.953,-3.194 m -2.923,14.895 c 4.129,0 7.675,-2.543 9.152,-6.144 -6.039,1.591 -12.653,-0.965 -15.935,-6.631 -0.522,-0.91 -0.937,-1.872 -1.246,-2.867 -1.169,1.623 -1.861,3.614 -1.861,5.763 0,5.448 4.437,9.879 9.89,9.879 M 5.158,8.618 c -0.823,3.073 -2.607,5.721 -5.096,7.612 -0.656,7.227 -6.75,12.909 -14.149,12.909 -7.356,0 -13.422,-5.616 -14.138,-12.781 -5.688,-4.243 -7.434,-12.192 -3.803,-18.485 1.897,-3.287 4.962,-5.642 8.63,-6.62 1.222,-0.328 2.462,-0.49 3.694,-0.49 1.892,0 3.766,0.384 5.522,1.134 1.779,-0.774 3.679,-1.168 5.598,-1.168 1.232,0 2.476,0.163 3.697,0.493 3.665,0.981 6.728,3.333 8.629,6.62 1.894,3.286 2.397,7.112 1.416,10.776"
           inkscape:connector-curvature="0" /></g></g></g></g><g
   aria-label="MAX"
   transform="scale(0.9999362,1.0000638)"
   style="font-style:normal;font-variant:normal;font-weight:normal;font-stretch:normal;font-size:162.1590271px;line-height:125%;font-family:'The Mix Bold-';-inkscape-font-specification:'The Mix Bold-';letter-spacing:0px;word-spacing:0px;fill:#005189;fill-opacity:1;stroke:none;stroke-width:0.84457815px;stroke-linecap:butt;stroke-linejoin:miter;stroke-opacity:1"
   id="text6345"><path
     d="m 766.87691,1370.9708 -54.053,-362.6055 q -9.00883,-54.053 -14.63935,-97.97106 -4.50442,-43.91806 -9.00883,-83.33171 h -2.25221 q -7.88273,36.03533 -18.01767,76.57508 -9.00883,39.41365 -23.64819,85.58392 L 524.76452,1370.9708 H 379.49709 L 263.50837,1018.5002 Q 247.74291,971.20386 234.22966,922.78138 221.84251,873.2328 215.08589,827.06253 h -2.25221 q -3.37831,50.67469 -9.00883,96.84496 -5.63052,46.17027 -12.38715,96.84491 l -42.79196,350.2184 H 3.0517578e-7 L 117.11483,610.85054 h 171.16783 l 127.24976,390.75816 q 27.0265,79.9534 41.66586,159.9068 h 2.2522 q 9.00884,-43.9181 18.01767,-78.8273 10.13494,-36.0354 24.77429,-78.8273 L 632.87052,610.85054 h 170.04172 l 118.24094,760.12026 z"
     style="font-style:normal;font-variant:normal;font-weight:normal;font-stretch:normal;font-size:1126.10412598px;font-family:'The Mix Bold-';-inkscape-font-specification:'The Mix Bold-';fill:#005189;fill-opacity:1;stroke-width:0.84457815px"
     id="path7736"
     inkscape:connector-curvature="0" /><path
     d="m 1497.5601,1370.9708 -52.9268,-155.4023 h -287.1566 l -52.9269,155.4023 H 957.03016 L 1222.7907,610.85054 h 165.5373 l 271.3911,760.12026 z M 1335.4012,900.2593 q -11.2611,-31.53091 -20.2699,-59.68352 -7.8828,-29.27871 -14.6394,-61.93573 h -1.1261 q -13.5132,60.80963 -36.0353,127.24977 l -68.6924,193.68988 h 211.7076 z"
     style="font-style:normal;font-variant:normal;font-weight:normal;font-stretch:normal;font-size:1126.10412598px;font-family:'The Mix Bold-';-inkscape-font-specification:'The Mix Bold-';fill:#005189;fill-opacity:1;stroke-width:0.84457815px"
     id="path7738"
     inkscape:connector-curvature="0" /><path
     d="m 2173.1698,1370.9708 -163.2851,-279.2738 -163.2851,279.2738 h -173.42 L 1915.292,982.4649 1687.8189,610.85054 h 170.0417 l 154.2763,263.50837 153.1502,-263.50837 h 166.6634 l -224.0947,370.48826 249.9951,389.632 z"
     style="font-style:normal;font-variant:normal;font-weight:normal;font-stretch:normal;font-size:1126.10412598px;font-family:'The Mix Bold-';-inkscape-font-specification:'The Mix Bold-';fill:#005189;fill-opacity:1;stroke-width:0.84457815px"
     id="path7740"
     inkscape:connector-curvature="0" /></g>

</svg>