<?xml version="1.0" encoding="UTF-8" standalone="no"?>
<!-- Created with Inkscape (http://www.inkscape.org/) -->

<svg
   width="54.278099"
   height="47.40266"
   id="svg2"
   version="1.1"
   inkscape:version="1.4.2 (ebf0e940, 2025-05-08)"
   sodipodi:docname="UTA_logo_reformatted.svg"
   xmlns:inkscape="http://www.inkscape.org/namespaces/inkscape"
   xmlns:sodipodi="http://sodipodi.sourceforge.net/DTD/sodipodi-0.dtd"
   xmlns="http://www.w3.org/2000/svg"
   xmlns:svg="http://www.w3.org/2000/svg"
   xmlns:rdf="http://www.w3.org/1999/02/22-rdf-syntax-ns#"
   xmlns:cc="http://creativecommons.org/ns#"
   xmlns:dc="http://purl.org/dc/elements/1.1/">
  <defs
     id="defs4" />
  <sodipodi:namedview
     id="base"
     pagecolor="#ffffff"
     bordercolor="#666666"
     borderopacity="1.0"
     inkscape:pageopacity="0.0"
     inkscape:pageshadow="2"
     inkscape:zoom="11.2"
     inkscape:cx="19.732143"
     inkscape:cy="37.544643"
     inkscape:document-units="px"
     inkscape:current-layer="layer1"
     showgrid="false"
     fit-margin-top="1"
     fit-margin-left="1"
     fit-margin-right="1"
     fit-margin-bottom="1"
     inkscape:window-width="1728"
     inkscape:window-height="1080"
     inkscape:window-x="0"
     inkscape:window-y="37"
     inkscape:window-maximized="0"
     inkscape:showpageshadow="2"
     inkscape:pagecheckerboard="0"
     inkscape:deskcolor="#d1d1d1" />
  <metadata
     id="metadata7">
    <rdf:RDF>
      <cc:Work
         rdf:about="">
        <dc:format>image/svg+xml</dc:format>
        <dc:type
           rdf:resource="http://purl.org/dc/dcmitype/StillImage" />
      </cc:Work>
    </rdf:RDF>
  </metadata>
  <g
     inkscape:label="Layer 1"
     inkscape:groupmode="layer"
     id="layer1"
     transform="translate(-379.83573,-519.20912)">
    <path
       inkscape:connector-curvature="0"
       d="m 383.11461,560.0613 c 0,2.41107 0.91387,3.58966 2.74112,3.58966 1.7465,0 2.74013,-1.10046 2.74013,-3.2753 v -7.78161 h 2.95612 v 7.78161 c 0,4.06177 -2.28475,6.23612 -5.83125,6.23612 -3.62725,0 -5.885,-2.14778 -5.885,-6.20906 v -7.80867 h 3.27888 z"
       style="fill:#205da9;fill-opacity:1;fill-rule:nonzero;stroke:none;stroke-width:0.987499"
       id="path140" />
    <path
       inkscape:connector-curvature="0"
       d="m 405.12148,555.52305 h -4.43375 v -2.90275 h 12.17225 v 2.90275 h -4.4075 v 10.98987 h -3.331 z"
       style="fill:#205da9;fill-opacity:1;fill-rule:nonzero;stroke:none"
       id="path142" />
    <path
       inkscape:connector-curvature="0"
       d="m 426.88623,557.77905 0.0276,-0.0535 1.8,4.35362 h -1.82762 v 2.39138 h 2.84875 l 0.88625,2.04237 h 3.49262 l -6.9325,-14.32237 h -0.24125 l -0.0539,0.10737 v 5.48113 z m -1.82762,4.30012 1.82762,-4.30012 v -5.48113 l -7.03987,14.215 h 3.35875 l 0.88612,-2.04237 h 2.795 v -2.39138 z"
       style="fill:#205da9;fill-opacity:1;fill-rule:nonzero;stroke:none"
       id="path144" />
    <path
       inkscape:connector-curvature="0"
       d="m 387.535,532.24137 v -6.9325 h 38.71975 v 6.90488 l -38.71975,0.0276 z"
       style="fill:#ee3338;fill-opacity:1;fill-rule:nonzero;stroke:none"
       id="path146" />
    <path
       inkscape:connector-curvature="0"
       d="m 426.2555,534.8755 h -38.69362 v 4.37875 h 38.69362 z"
       style="fill:#205da9;fill-opacity:1;fill-rule:nonzero;stroke:none"
       id="path148" />
    <path
       inkscape:connector-curvature="0"
       d="m 406.82788,519.20912 c -4.64875,0 -8.76013,2.44488 -11.09763,6.09863 h 3.38638 c 1.90737,-2.09475 4.64737,-3.4125 7.71125,-3.4125 5.77737,0 10.4525,4.6765 10.4525,10.45275 0,5.77875 -4.67513,10.45237 -10.4525,10.45237 -3.11625,0 -5.91125,-1.37012 -7.81863,-3.54612 h -3.359 c 2.31025,3.76125 6.44875,6.261 11.17763,6.261 7.28125,0 13.14,-5.91238 13.14,-13.16725 0,-7.25388 -5.85875,-13.13888 -13.14,-13.13888"
       style="fill:#205da9;fill-opacity:1;fill-rule:nonzero;stroke:none"
       id="path150" />
    <path
       inkscape:connector-curvature="0"
       d="m 423.2455,540.75912 h 0.1885 c 0,0.10738 0.0262,0.18738 0.0801,0.24238 0.0537,0.0524 0.16113,0.08 0.26888,0.08 0.0811,0 0.16124,-0.0276 0.24237,-0.08 0.0539,-0.0276 0.0801,-0.0811 0.0801,-0.16263 0,-0.10737 -0.10775,-0.1875 -0.34875,-0.241 h -0.0276 c -0.16121,-0.0539 -0.29509,-0.10775 -0.34859,-0.16125 -0.0539,-0.0276 -0.0815,-0.10762 -0.0815,-0.215 0,-0.10775 0.0276,-0.21512 0.10775,-0.29625 0.10738,-0.0525 0.215,-0.10625 0.35,-0.10625 0.16125,0 0.26863,0.0538 0.34875,0.1335 0.10725,0.0539 0.1335,0.16125 0.1335,0.29625 h -0.15975 c 0,-0.0811 -0.0539,-0.16125 -0.10775,-0.1885 -0.0535,-0.0539 -0.10737,-0.0815 -0.21475,-0.0815 -0.0815,0 -0.1615,0.0276 -0.215,0.0553 -0.0539,0.0535 -0.0815,0.0797 -0.0815,0.16125 0,0.10625 0.10763,0.18738 0.32275,0.24125 h 0.0811 0.0263 c 0.135,0.0535 0.24125,0.0811 0.29512,0.13363 0.0272,0.0276 0.0535,0.0539 0.0811,0.10875 0,0.0263 0.0276,0.0801 0.0276,0.13362 0,0.13388 -0.0553,0.24125 -0.135,0.32275 -0.10762,0.0535 -0.24125,0.10738 -0.37625,0.10738 -0.16125,0 -0.29512,-0.0539 -0.4025,-0.135 -0.0815,-0.08 -0.135,-0.18738 -0.135,-0.34863"
       style="fill:#205da9;fill-opacity:1;fill-rule:nonzero;stroke:none"
       id="path152" />
    <path
       inkscape:connector-curvature="0"
       d="m 424.66988,540.06 v 1.1565 h -0.16125 v -1.34388 h 0.26762 l 0.32375,1.02113 c 0.0262,0.0263 0.0262,0.0528 0.0262,0.0528 v 0.055 c 0.0276,-0.0276 0.0276,-0.055 0.0276,-0.055 0,-0.0265 0,-0.0528 0.0263,-0.0528 l 0.3225,-1.02113 h 0.2685 v 1.34388 h -0.16125 V 540.06 c -0.0261,0.0276 -0.0261,0.0276 -0.0261,0.0539 0,0.0263 0,0.0539 -0.0274,0.0539 l -0.349,1.04875 h -0.16113 l -0.3225,-1.04875 c -0.0262,0 -0.0262,-0.0276 -0.0262,-0.0539 0,0 0,-0.0263 -0.0276,-0.0539"
       style="fill:#205da9;fill-opacity:1;fill-rule:nonzero;stroke:none"
       id="path154" />
  </g>
</svg>
