<?xml version="1.0" encoding="UTF-8" standalone="no"?>
<svg xmlns:rdf="http://www.w3.org/1999/02/22-rdf-syntax-ns#" xmlns="http://www.w3.org/2000/svg" height="107.1" width="448.06" version="1.1" xmlns:cc="http://creativecommons.org/ns#" xmlns:dc="http://purl.org/dc/elements/1.1/">
	<g transform="matrix(.78627 0 0 .78627 -121.93 -267.05)">
		<g transform="matrix(0,6.1196,6.1196,0,238.86,415.38)">
			<path fill="#532e63" d="m0 0c0.669-2.564 1.326-4.623 1.954-6.254l7.517-1.13v7.073l-8.163 0.755"/>
		</g>
		<g transform="matrix(0,6.1196,6.1196,0,344.96,370.94)">
			<path fill="#532e63" d="m0 0-4.906-0.75v-7.283l6.675-1.661v0.011c-1.112 4.973-1.666 9.054-1.666 9.054-0.035 0.207-0.069 0.42-0.103 0.629m3.836 0.587c0.232-1.608 0.467-3.135 0.704-4.585l3.586-1.233 8.607 0.717v7.074"/>
		</g>
		<g transform="matrix(0,6.1196,6.1196,0,232.17,395.7)">
			<path fill="#532e63" d="m0 0-8.951-3.039 10.416-1.566c-0.334 0.966-0.853 2.534-1.465 4.605"/>
		</g>
		<g transform="matrix(0,6.1196,6.1196,0,431.12,358.77)">
			<path fill="#54b948" d="m0 0c0.654-5.352 1.352-10.262 2.093-14.708 0 0 0.665-4.91 2.005-10.521 0.099-0.423 0.202-0.836 0.301-1.242l-7.315-1.853v-7.224l8.951 3.039c1.073-3.635 1.864-5.722 1.864-5.722 1.819-4.398 3.742-6.677 5.725-6.67 1.831 0.006 3.006 2.002 3.506 4.824l-1.345 0.185c-0.398-2.084-1.195-3.172-1.856-3.175-1.257-0.004-3.382 2.788-5.642 11.322l2.273 0.772 8.163 2.802v5.905l-8.607 2.955-3.588 1.235c0.401-2.452 0.807-4.681 1.213-6.707 0.538-0.135 1.175-0.282 1.521-0.315v-0.143l-2.357-0.596c-1.038 4.992-2.074 11.291-3.039 19.183"/>
		</g>
		<g transform="matrix(0,6.1196,6.1196,0,422.11,410.04)">
			<path fill="#532e63" d="m0 0v2.613l5.458 2.073-5.458 2.193v2.641l10.211 1.545v-2.655l-5.877-0.745v-0.027l5.877-2.452v-1.056l-5.877-2.342v-0.028l5.877-0.853v-2.641"/>
		</g>
		<g transform="matrix(0,6.1196,6.1196,0,517.9,423.79)">
			<path fill="#532e63" d="m0 0h1.706v2.993h2.249v-2.993h1.76v3.156h2.248v-5.811h-10.211v5.811h2.248"/>
		</g>
		<g transform="matrix(0,6.1196,6.1196,0,577.07,472.52)">
			<path fill="#532e63" d="m0 0v-2.655h-7.963v-2.194h-2.248v7.043h2.248v-2.194"/>
		</g>
		<g transform="matrix(0,6.1196,6.1196,0,653.3,472.52)">
			<path fill="#532e63" d="m0 0v-3.305l-3.927-2.506v-0.026h3.927v-2.655h-10.211v3.969c0 2.017 0.962 3.548 3.142 3.548 1.409 0 2.627-0.786 2.884-2.235l4.185 3.21zm-5.634-5.837v0.257c0 0.868-0.162 1.842-1.272 1.842-1.111 0-1.273-0.974-1.273-1.842v-0.257"/>
		</g>
		<g transform="matrix(0,6.1196,6.1196,0,723.65,440.11)">
			<path fill="#532e63" d="m0 0c3.305 0 5.633-2.37 5.633-5.648 0-3.277-2.328-5.647-5.633-5.647-3.088 0-5.254 2.709-5.254 5.647 0 2.94 2.166 5.648 5.254 5.648m0.015-8.532c1.759 0 3.045 1.3 3.045 2.884 0 1.586-1.286 2.885-3.045 2.885-1.409 0-2.697-1.299-2.697-2.885 0-1.584 1.288-2.884 2.697-2.884"/>
		</g>
		<g transform="matrix(0,6.1196,6.1196,0,473.9,368.39)">
			<path fill="#532e63" d="m0 0-4.443 1.776v2.066l7.314-3.123v-1.475l-7.314-3.075v2.066"/>
		</g>
		<g transform="matrix(0,6.1196,6.1196,0,509.94,378.18)">
			<path fill="#532e63" d="m0 0 1.271-0.504v-2.018l-7.314 2.814v2.075l7.314 2.755v-2.027l-1.271-0.475v-2.62zm-3.783 1.329v-0.02l2.329-0.785v1.581"/>
		</g>
		<g transform="matrix(0,6.1196,6.1196,0,560.1,376.1)">
			<path fill="#532e63" d="m0 0v2.279h1.61v-4.181h-7.314v1.902"/>
		</g>
		<g transform="matrix(0,6.1196,6.1196,0,593.04,376.1)">
			<path fill="#532e63" d="m0 0v2.279h1.61v-4.18h-7.314v1.901"/>
		</g>
		<g transform="matrix(0,6.1196,6.1196,0,625.97,351.04)">
			<path fill="#532e63" d="m0 0h1.223v2.144h1.61v-2.144h1.261v2.261h1.61v-4.162h-7.314v4.162h1.61"/>
		</g>
		<g transform="matrix(0,6.1196,6.1196,0,643.24,341.19)">
			<path fill="#532e63" d="m0 0v2.28l1.988 1.368-1.988 1.367v2.28l3.803-2.697h3.511v-1.901h-3.511"/>
		</g>
		<g transform="matrix(0,6.1196,6.1196,0,367.4,473.34)">
			<path fill="#532e63" d="m0 0c0-0.308-0.214-0.519-0.533-0.519-0.317 0-0.535 0.216-0.535 0.522s0.216 0.518 0.535 0.518c0.317 0 0.533-0.217 0.533-0.521m-1.007 0.003c0-0.251 0.171-0.449 0.474-0.449 0.301 0 0.472 0.2 0.472 0.446 0 0.25-0.171 0.447-0.472 0.447-0.303 0-0.474-0.199-0.474-0.444m0.759 0.151-0.253-0.177v-0.057h0.244v-0.099h-0.591v0.177c0 0.123 0.061 0.207 0.173 0.207 0.084 0 0.14-0.047 0.162-0.12l0.242 0.172 0.023-0.103zm-0.509-0.156v-0.078h0.176v0.072c0 0.067-0.028 0.11-0.088 0.11-0.058 0-0.088-0.038-0.088-0.104"/>
		</g>
	</g>
</svg>
