<?xml version="1.0" encoding="UTF-8" standalone="no"?>
<svg
   height="104.12576"
   width="216.04832"
   version="1.1"
   id="svg17"
   sodipodi:docname="Valley_Metro_logo_no_text.svg"
   inkscape:version="1.4.2 (ebf0e940, 2025-05-08)"
   xmlns:inkscape="http://www.inkscape.org/namespaces/inkscape"
   xmlns:sodipodi="http://sodipodi.sourceforge.net/DTD/sodipodi-0.dtd"
   xmlns="http://www.w3.org/2000/svg"
   xmlns:svg="http://www.w3.org/2000/svg">
  <defs
     id="defs17" />
  <sodipodi:namedview
     id="namedview17"
     pagecolor="#ffffff"
     bordercolor="#000000"
     borderopacity="0.25"
     inkscape:showpageshadow="2"
     inkscape:pageopacity="0.0"
     inkscape:pagecheckerboard="0"
     inkscape:deskcolor="#d1d1d1"
     inkscape:zoom="1.7927807"
     inkscape:cx="222.0015"
     inkscape:cy="51.038034"
     inkscape:window-width="1728"
     inkscape:window-height="1080"
     inkscape:window-x="0"
     inkscape:window-y="37"
     inkscape:window-maximized="0"
     inkscape:current-layer="svg17" />
  <g
     id="g17"
     transform="translate(-0.99839128,-1.0030003)">
    <g
       transform="matrix(0,4.8116579,4.8116579,0,65.878452,59.550833)"
       id="g1">
      <path
         fill="#532e63"
         d="m 0,0 c 0.669,-2.564 1.326,-4.623 1.954,-6.254 l 7.517,-1.13 v 7.073 L 1.308,0.444"
         id="path1" />
    </g>
    <g
       transform="matrix(0,4.8116579,4.8116579,0,149.3017,24.608994)"
       id="g2">
      <path
         fill="#532e63"
         d="m 0,0 -4.906,-0.75 v -7.283 l 6.675,-1.661 v 0.011 C 0.657,-4.71 0.103,-0.629 0.103,-0.629 0.068,-0.422 0.034,-0.209 0,0 M 3.836,0.587 C 4.068,-1.021 4.303,-2.548 4.54,-3.998 l 3.586,-1.233 8.607,0.717 V 2.56"
         id="path2" />
    </g>
    <g
       transform="matrix(0,4.8116579,4.8116579,0,60.618306,44.077039)"
       id="g3">
      <path
         fill="#532e63"
         d="M 0,0 -8.951,-3.039 1.465,-4.605 C 1.131,-3.639 0.612,-2.071 0,0"
         id="path3" />
    </g>
    <g
       transform="matrix(0,4.8116579,4.8116579,0,217.04672,15.040088)"
       id="g4">
      <path
         fill="#54b948"
         d="m 0,0 c 0.654,-5.352 1.352,-10.262 2.093,-14.708 0,0 0.665,-4.91 2.005,-10.521 0.099,-0.423 0.202,-0.836 0.301,-1.242 l -7.315,-1.853 v -7.224 l 8.951,3.039 c 1.073,-3.635 1.864,-5.722 1.864,-5.722 1.819,-4.398 3.742,-6.677 5.725,-6.67 1.831,0.006 3.006,2.002 3.506,4.824 l -1.345,0.185 c -0.398,-2.084 -1.195,-3.172 -1.856,-3.175 -1.257,-0.004 -3.382,2.788 -5.642,11.322 l 2.273,0.772 8.163,2.802 v 5.905 l -8.607,2.955 -3.588,1.235 c 0.401,-2.452 0.807,-4.681 1.213,-6.707 0.538,-0.135 1.175,-0.282 1.521,-0.315 v -0.143 l -2.357,-0.596 c -1.038,4.992 -2.074,11.291 -3.039,19.183"
         id="path4" />
    </g>
    <g
       transform="matrix(0,4.8116579,4.8116579,0,166.9456,105.12304)"
       id="g16">
      <path
         fill="#532e63"
         d="m 0,0 c 0,-0.308 -0.214,-0.519 -0.533,-0.519 -0.317,0 -0.535,0.216 -0.535,0.522 0,0.306 0.216,0.518 0.535,0.518 C -0.216,0.521 0,0.304 0,0 m -1.007,0.003 c 0,-0.251 0.171,-0.449 0.474,-0.449 0.301,0 0.472,0.2 0.472,0.446 0,0.25 -0.171,0.447 -0.472,0.447 -0.303,0 -0.474,-0.199 -0.474,-0.444 m 0.759,0.151 -0.253,-0.177 V -0.08 h 0.244 v -0.099 h -0.591 v 0.177 c 0,0.123 0.061,0.207 0.173,0.207 0.084,0 0.14,-0.047 0.162,-0.12 l 0.242,0.172 z M -0.757,-0.002 V -0.08 h 0.176 v 0.072 c 0,0.067 -0.028,0.11 -0.088,0.11 -0.058,0 -0.088,-0.038 -0.088,-0.104"
         id="path16" />
    </g>
  </g>
</svg>
