<?xml version="1.0" encoding="UTF-8" standalone="no"?>
<svg
   viewBox="0 0 166.09642 74.797409"
   height="74.797409"
   width="166.09642"
   xml:space="preserve"
   id="svg2"
   version="1.1"
   sodipodi:docname="VTA_logo_2017_no_text.svg"
   inkscape:version="1.4.2 (ebf0e940, 2025-05-08)"
   xmlns:inkscape="http://www.inkscape.org/namespaces/inkscape"
   xmlns:sodipodi="http://sodipodi.sourceforge.net/DTD/sodipodi-0.dtd"
   xmlns="http://www.w3.org/2000/svg"
   xmlns:svg="http://www.w3.org/2000/svg"
   xmlns:rdf="http://www.w3.org/1999/02/22-rdf-syntax-ns#"
   xmlns:cc="http://creativecommons.org/ns#"
   xmlns:dc="http://purl.org/dc/elements/1.1/"><sodipodi:namedview
     id="namedview1"
     pagecolor="#ffffff"
     bordercolor="#000000"
     borderopacity="0.25"
     inkscape:showpageshadow="2"
     inkscape:pageopacity="0.0"
     inkscape:pagecheckerboard="0"
     inkscape:deskcolor="#d1d1d1"
     inkscape:zoom="2.3953519"
     inkscape:cx="167.82503"
     inkscape:cy="39.451406"
     inkscape:window-width="1728"
     inkscape:window-height="1080"
     inkscape:window-x="0"
     inkscape:window-y="37"
     inkscape:window-maximized="0"
     inkscape:current-layer="svg2" /><metadata
     id="metadata8"><rdf:RDF><cc:Work
         rdf:about=""><dc:format>image/svg+xml</dc:format><dc:type
           rdf:resource="http://purl.org/dc/dcmitype/StillImage" /></cc:Work></rdf:RDF></metadata><defs
     id="defs6" /><path
     id="path72"
     style="fill:#5db9e8;fill-opacity:1;fill-rule:nonzero;stroke:none;stroke-width:0.133333"
     d="M 165.66011,69.775544 C 157.36677,56.796331 132.90224,18.507799 132.90224,18.507799 125.60277,7.199532 117.27037,1.3104655 107.34957,0.01459887 c -1.4896,-0.1948 -2.39373,1.60466663 -1.3932,2.72506663 4.87294,5.4571998 5.8568,10.4259995 -0.38226,20.8869325 h 15.2344 c 1.60613,0 2.61506,1.7328 1.82226,3.129734 l -0.20146,0.3556 c -3.90054,7.330799 -12.3172,11.132933 -18.812,11.132933 H 96.27664 L 83.064107,58.911531 c -4.3916,6.873866 0.546933,15.886399 8.703733,15.885879 3.485867,0 6.771867,0 9.15053,0 2.32294,0 4.4848,-1.171346 5.7568,-3.115106 l 12.41454,-18.974506 c 0.85306,-1.304134 2.76506,-1.304134 3.61826,0 l 11.8868,18.171386 c 1.272,1.943746 3.436,3.115626 5.75867,3.115626 5.61867,0 16.32267,0 22.99467,0 2.16933,0 3.47866,-2.391666 2.312,-4.219266" /><path
     id="path74"
     style="fill:#214e8d;fill-opacity:1;fill-rule:nonzero;stroke:none;stroke-width:0.133333"
     d="M 68.218374,38.244865 H 56.963708 c -1.606267,0 -2.6152,-1.732934 -1.8224,-3.130267 l 5.314533,-9.365066 c 0.744266,-1.312 2.1364,-2.122934 3.645333,-2.122934 h 13.4568 L 85.88864,10.586465 C 88.815173,6.0057987 85.527707,6.5532584e-5 80.09224,6.5532584e-5 c -5.542666,0 -11.647866,0 -15.443733,0 -2.322933,0 -4.4848,1.171866667416 -5.756666,3.115599967416 L 47.004774,21.286465 c -0.853066,1.3052 -2.765066,1.3052 -3.618266,5.33e-4 L 31.499042,3.1156655 C 30.227175,1.1719322 28.064108,6.5532584e-5 25.741308,6.5532584e-5 c -5.618266,0 -16.3182791,0 -22.990159,0 C 0.58031713,6.5532584e-5 -0.73166151,2.3943322 0.4370878,4.2233988 8.7329222,17.206732 33.192242,55.486998 33.192242,55.486998 c 7.299599,11.308853 15.631866,17.197919 25.552666,18.493226 1.489599,0.1948 2.393733,-1.60468 1.393199,-2.725 -5.117733,-5.731293 -5.964533,-10.908893 1.359334,-22.491693 l 6.720933,-10.518666" /></svg>
